<?xml version="1.0" standalone="no"?>
<!DOCTYPE svg PUBLIC "-//W3C//DTD SVG 20010904//EN"
 "http://www.w3.org/TR/2001/REC-SVG-20010904/DTD/svg10.dtd">
<svg version="1.0" xmlns="http://www.w3.org/2000/svg"
 width="600.000000pt" height="500.000000pt" viewBox="0 0 815.000000 691.000000"
 preserveAspectRatio="xMidYMid meet">

<g transform="translate(0.000000,691.000000) scale(0.100000,-0.100000)"
fill="#000000" stroke="none">
<path d="M0 3455 l0 -3455 310 0 310 0 0 585 0 585 23 0 c36 0 45 -12 71 -90
54 -158 114 -190 354 -191 l132 -1 0 -141 c1 -157 20 -345 44 -422 9 -27 16
-60 16 -71 0 -17 8 -23 38 -28 53 -8 400 -7 405 2 3 4 -16 7 -41 8 -217 3
-265 6 -247 14 11 5 15 9 8 9 -7 1 -10 8 -7 16 4 9 1 15 -7 15 -8 0 -14 10
-14 24 0 13 3 22 8 19 4 -2 7 0 7 6 0 5 -4 13 -10 16 -5 3 -10 11 -10 16 0 6
5 7 11 3 8 -4 8 -1 1 13 -12 22 -11 71 2 92 6 10 5 12 -2 7 -16 -10 -16 26 0
42 9 9 9 12 0 12 -7 0 -12 5 -12 11 0 5 6 7 13 3 9 -6 9 -4 -1 8 -8 11 -9 18
-3 23 6 3 9 19 7 35 -2 17 1 30 6 30 5 0 5 8 -1 18 -5 10 -6 24 -1 32 4 7 6
18 4 24 -2 6 5 36 15 66 17 52 20 55 57 61 21 3 59 16 83 29 32 17 68 25 135
30 75 6 57 7 -104 9 -197 1 -283 10 -210 21 l35 5 0 92 c0 90 1 93 23 93 28 0
28 -2 -9 155 -16 72 -32 144 -35 160 -3 17 -12 58 -20 93 -19 85 -18 112 7
138 21 22 21 22 1 33 -10 6 -25 24 -32 41 -14 33 -48 41 -70 15 -12 -15 -10
-89 5 -160 4 -17 3 -25 -2 -19 -8 12 -84 36 -91 30 -2 -3 -6 -41 -9 -85 -4
-56 -10 -81 -20 -83 -9 -2 -3 -18 22 -55 19 -29 35 -57 35 -63 0 -5 4 -10 9
-10 5 0 25 -31 45 -70 21 -38 35 -70 32 -70 -2 0 -18 21 -35 48 -27 41 -64 90
-117 154 -7 10 -17 18 -21 17 -5 0 -23 -31 -41 -70 -23 -48 -31 -76 -26 -91 6
-20 5 -21 -9 -10 -9 8 -20 11 -26 8 -5 -3 -12 1 -15 10 -5 13 -9 14 -20 5 -10
-9 -16 -9 -21 -1 -5 8 -11 7 -23 -2 -12 -10 -14 -10 -8 0 4 7 2 12 -6 12 -9 0
-9 3 2 10 12 7 10 9 -8 10 -59 1 -62 2 -55 13 4 8 1 7 -9 -1 -14 -11 -19 -10
-33 12 -10 14 -22 23 -27 20 -6 -4 -4 4 3 17 11 22 11 23 -4 11 -13 -11 -15
-10 -10 7 3 13 1 21 -8 21 -7 0 -10 3 -6 6 3 4 -1 13 -9 22 -13 12 -13 16 -2
23 9 6 8 9 -7 9 -17 0 -17 2 -5 10 8 5 10 10 5 10 -6 0 -11 10 -12 23 0 12 -4
47 -8 77 -4 30 -8 112 -9 182 l-1 128 55 -8 c30 -4 188 -7 350 -7 295 1 510
18 563 47 19 10 19 11 3 20 -44 25 -391 69 -416 53 -13 -8 -13 20 0 66 5 19
11 75 13 125 3 65 10 101 26 134 l21 45 -4 -50 c-3 -27 -8 -63 -11 -80 -11
-48 55 94 71 155 8 30 14 70 14 90 l0 35 -15 -25 c-8 -14 -18 -33 -21 -42 -3
-10 -14 -18 -23 -19 -10 0 -11 -2 -4 -6 10 -3 10 -8 -1 -19 -21 -20 -24 -18
-28 19 -2 26 -12 6 -47 -100 -24 -73 -48 -133 -53 -133 -5 0 -8 -8 -7 -18 1
-9 -6 -42 -15 -72 -10 -30 -26 -91 -35 -134 -20 -90 -41 -113 -41 -44 0 24 7
106 15 183 9 77 15 165 14 195 -1 30 1 62 4 70 11 26 30 172 37 280 7 96 8 92
4 -40 -3 -135 -11 -238 -29 -400 -4 -36 -5 -63 -2 -60 3 3 12 59 21 125 11 88
20 123 33 132 9 7 18 11 20 9 3 -2 -1 -41 -8 -85 -6 -45 -9 -84 -6 -87 3 -3
16 32 30 78 37 125 39 134 22 148 -8 7 -15 27 -16 44 -1 30 -1 30 -9 6 -6 -18
-8 -5 -9 46 -1 48 6 93 20 135 15 48 19 81 16 129 -3 36 -1 56 3 45 7 -19 8
-18 13 5 3 14 4 -24 1 -85 -4 -99 -3 -108 11 -91 25 33 29 -5 10 -100 -9 -47
-15 -88 -12 -90 2 -3 17 32 33 77 41 118 114 214 93 122 -4 -21 -6 -61 -2 -89
4 -42 9 -51 23 -47 15 4 18 -7 23 -90 5 -91 22 -146 49 -163 8 -5 9 -2 3 12
-13 27 -18 155 -8 165 6 6 24 -22 47 -71 21 -44 42 -83 47 -86 5 -3 14 -15 20
-27 10 -19 7 -18 -18 6 -37 34 -42 34 -41 -4 1 -38 38 -60 69 -41 14 9 19 9
19 1 0 -8 13 -9 39 -5 43 7 71 -10 71 -42 0 -9 9 -31 19 -48 l19 -32 124 -4
c108 -4 131 -8 185 -32 33 -15 73 -40 88 -56 l27 -28 -186 -7 c-102 -4 -212
-6 -244 -3 -53 4 -59 2 -55 -14 6 -20 61 -40 193 -68 52 -11 135 -32 183 -47
102 -31 117 -48 117 -133 0 -44 -2 -50 -21 -50 -21 0 -21 -3 -17 -120 4 -115
3 -121 -16 -125 -35 -8 -280 -47 -301 -49 -16 -1 -21 6 -23 32 -3 27 -7 32
-23 27 -17 -6 -19 -1 -19 44 0 28 -4 51 -10 51 -5 0 -10 -4 -10 -10 0 -5 -9
-14 -20 -20 -19 -10 -20 -8 -20 36 0 39 2 44 14 35 11 -9 18 -3 36 35 13 26
23 59 24 74 1 16 4 26 9 23 4 -2 7 1 7 8 0 6 12 24 28 39 29 28 40 65 16 56
-7 -3 -16 -1 -20 5 -4 6 -11 5 -22 -3 -14 -12 -14 -10 -3 10 11 21 7 27 -20
24 -3 -1 -6 5 -6 13 0 8 4 12 8 9 4 -2 9 -1 12 3 2 5 2 2 0 -5 -1 -8 3 -12 9
-9 7 2 12 12 10 22 -3 16 -2 17 12 2 17 -16 22 -32 8 -23 -4 2 -8 -3 -9 -13
-1 -13 5 -17 22 -17 13 1 27 5 31 9 4 3 -3 5 -15 2 -11 -2 -21 -3 -21 -2 0 1
4 17 10 35 7 27 7 32 -4 23 -9 -7 -16 -7 -24 1 -13 13 -117 -34 -131 -60 -4
-9 -11 -53 -14 -97 -4 -61 -12 -97 -36 -149 -29 -64 -31 -77 -31 -185 -1 -72
-8 -148 -19 -201 l-18 -85 61 -3 c78 -4 146 6 146 21 0 7 13 32 30 57 16 24
32 57 36 73 8 40 34 52 174 81 107 23 129 25 154 14 l28 -13 -6 -200 c-3 -110
-6 -215 -6 -232 0 -25 -5 -33 -17 -33 -17 -1 -17 -1 0 -11 11 -6 33 -7 60 -2
l42 9 5 244 c5 237 6 245 25 244 44 -2 303 -47 354 -61 l53 -15 -5 -52 c-20
-200 -31 -274 -41 -296 -8 -16 -11 -51 -8 -97 l4 -71 226 1 c202 2 227 4 230
18 2 13 -15 23 -70 41 -71 24 -75 27 -135 106 -53 69 -62 88 -68 137 -8 64 -1
144 14 172 6 10 38 126 71 258 33 132 67 260 75 285 7 25 21 70 29 102 15 54
18 57 63 72 25 9 48 15 49 13 1 -1 14 -59 28 -129 33 -160 57 -224 158 -418
79 -152 116 -210 208 -321 84 -102 93 -121 91 -208 -1 -59 2 -81 14 -91 8 -7
15 -21 15 -32 0 -17 6 -19 63 -16 56 3 62 5 65 26 3 21 8 22 87 22 69 0 100 6
169 31 118 43 123 53 32 67 -98 15 -248 80 -298 129 -61 58 -60 56 -152 375
-25 86 -46 162 -46 170 0 8 34 21 98 35 53 12 106 25 117 28 15 4 24 -2 37
-24 35 -64 153 -98 178 -52 16 31 12 55 -22 128 -18 37 -32 74 -31 82 1 8 -3
26 -9 40 -5 14 -11 58 -13 96 -13 236 -28 385 -49 495 -13 69 -22 127 -20 129
2 2 23 0 47 -3 l45 -7 17 -67 c31 -125 103 -272 133 -272 7 0 11 3 9 8 -3 4
18 6 46 4 29 -1 57 1 63 5 8 6 5 47 -12 148 -13 77 -23 147 -24 155 0 12 30
22 123 43 119 26 126 26 203 13 43 -8 93 -19 109 -25 17 -5 49 -15 72 -21 l42
-10 -6 -119 c-6 -119 2 -185 16 -131 4 14 11 25 16 25 6 0 16 4 23 9 7 4 19 3
28 -5 12 -10 13 -9 8 7 -4 10 -4 16 1 12 4 -4 18 4 31 17 13 14 34 25 49 25
17 0 24 4 19 12 -5 7 -2 9 8 5 10 -3 15 0 14 11 0 9 5 16 12 14 6 -1 12 3 12
9 0 7 10 9 25 7 14 -3 28 -1 31 4 3 4 10 5 16 2 7 -5 9 -1 5 9 -4 11 -1 15 14
12 11 -2 19 2 19 10 0 8 8 12 20 10 11 -2 20 2 20 8 0 8 3 8 9 -1 6 -11 10
-10 15 3 5 15 9 15 23 4 9 -8 14 -9 11 -4 -3 6 0 16 8 23 11 10 14 10 14 0 0
-9 3 -9 10 2 5 8 10 11 10 5 0 -5 7 -1 15 9 14 19 15 19 15 -5 0 -56 -30 -260
-49 -335 -44 -172 -65 -370 -38 -362 19 7 34 46 52 138 32 171 85 326 85 249
0 -12 4 -85 10 -163 5 -77 14 -217 20 -311 13 -208 16 -225 40 -225 20 0 30
-36 30 -111 0 -38 -4 -52 -20 -61 -11 -7 -20 -20 -20 -29 0 -20 -37 -59 -56
-59 -29 0 -86 30 -81 43 3 7 -1 21 -9 32 -8 10 -14 28 -14 40 0 12 -13 31 -31
44 -17 13 -35 36 -41 52 -5 16 -13 29 -17 29 -8 0 -73 -219 -90 -305 -6 -27
-13 -59 -17 -71 -5 -20 -2 -21 118 -23 300 -7 414 -4 444 10 29 14 29 15 29
105 0 68 -4 97 -17 116 -17 26 -18 69 -2 174 7 47 7 47 122 60 l64 7 -17 -34
c-10 -19 -26 -45 -36 -58 -10 -13 -16 -28 -12 -34 3 -5 6 -22 7 -36 1 -22 6
-27 34 -29 29 -3 32 -1 32 26 0 16 11 44 25 63 13 19 36 51 50 73 31 44 4 44
262 0 140 -24 173 -32 176 -46 4 -14 16 -18 46 -18 23 0 41 5 41 11 0 5 5 7
10 4 6 -3 10 -15 10 -25 0 -11 13 -35 30 -53 33 -38 30 -47 -12 -47 -34 0 -99
-25 -110 -43 -4 -7 -8 -27 -8 -44 0 -27 4 -34 28 -39 47 -10 48 -12 10 -13
-31 -1 -38 -5 -38 -21 0 -11 5 -20 10 -20 6 0 10 -5 10 -10 0 -6 17 -27 39
-48 60 -57 69 -63 73 -50 2 6 10 8 16 4 9 -5 9 -13 1 -27 -8 -15 -14 -18 -24
-9 -10 8 -16 1 -29 -36 -19 -56 -19 -54 -6 -54 6 0 15 11 20 25 12 32 24 32
18 0 -3 -13 -2 -23 1 -20 15 9 27 -14 39 -73 38 -187 106 -366 186 -486 51
-76 60 -85 116 -110 90 -38 205 -45 296 -18 74 23 149 71 159 103 4 10 11 17
16 14 5 -3 6 2 2 11 -4 11 -3 15 5 10 6 -3 14 -1 18 5 5 8 3 9 -6 4 -10 -6
-12 -1 -8 18 3 15 1 24 -3 21 -16 -10 -9 9 9 23 15 13 14 13 -7 2 -23 -11 -24
-10 -18 20 5 24 2 36 -14 52 -15 15 -18 24 -9 34 6 7 13 23 15 36 4 17 2 20
-7 11 -7 -7 -18 -12 -26 -12 -9 0 -6 7 9 21 13 11 18 18 11 14 -15 -8 -11 27
6 48 10 11 9 17 -5 28 -16 12 -17 12 -5 -2 10 -13 9 -19 -3 -29 -8 -7 -13 -16
-10 -20 3 -5 1 -11 -4 -14 -12 -8 -8 37 4 47 6 5 -1 6 -15 3 -23 -5 -23 -4 -7
8 15 11 15 15 3 19 -8 3 -13 14 -11 24 1 10 -3 25 -9 33 -10 13 -9 13 6 1 10
-7 15 -17 12 -22 -3 -5 0 -9 5 -9 15 0 14 12 -3 35 -12 16 -12 23 1 45 14 23
14 24 -1 6 -12 -15 -16 -16 -16 -5 0 8 6 21 13 28 7 9 7 11 1 8 -7 -4 -15 0
-18 9 -3 9 -11 12 -18 8 -10 -6 -10 -4 0 8 9 12 10 18 2 23 -8 5 -8 11 -1 19
6 7 8 16 4 20 -4 4 1 4 11 0 13 -5 17 -4 13 3 -7 12 12 22 46 25 12 1 -124 4
-303 7 -204 4 -332 10 -343 17 -14 8 74 11 328 13 441 3 500 9 557 59 17 14
18 13 18 -16 0 -26 -4 -31 -27 -35 l-28 -4 28 -2 27 -1 0 -520 0 -520 310 0
310 0 0 3455 0 3455 -310 0 -310 0 0 -429 0 -429 -22 -6 c-19 -5 -20 -8 -8
-15 8 -5 18 -7 22 -5 4 3 8 -498 8 -1112 l0 -1118 -22 -25 c-13 -15 -16 -20
-8 -14 24 22 30 15 29 -39 0 -29 -3 -47 -6 -40 -3 9 -10 4 -19 -14 -17 -31
-12 -54 11 -54 21 0 22 -95 1 -103 -8 -3 -16 -1 -18 5 -3 7 -9 5 -19 -4 -13
-14 -16 -13 -26 9 -9 19 -9 25 3 30 8 3 14 13 14 23 0 11 4 22 10 25 5 3 10
12 10 18 0 8 -3 8 -9 -1 -7 -11 -9 -10 -14 3 -4 9 -3 13 2 10 5 -3 11 3 13 12
5 26 -3 63 -14 63 -5 0 -6 -5 -2 -12 5 -7 3 -8 -6 -3 -10 6 -10 11 3 20 9 7
15 15 12 18 -3 4 -2 5 2 2 4 -3 9 -18 11 -33 2 -15 6 -29 9 -32 3 -3 4 6 2 20
-2 14 3 36 10 50 10 21 10 23 -1 8 -13 -15 -15 -15 -25 0 -9 15 -20 7 -82 -57
l-71 -74 -2 94 -1 94 -7 -70 c-12 -117 -22 -175 -31 -175 -5 0 -9 5 -9 11 0 7
-13 33 -29 58 -38 63 -48 93 -27 85 25 -10 19 10 -12 39 -33 32 -52 35 -52 7
0 -11 -5 -20 -11 -20 -6 0 -10 22 -9 53 0 28 -3 120 -6 204 -4 93 -3 162 3
180 9 24 8 29 -6 30 -14 1 -16 -17 -13 -179 2 -117 -1 -184 -8 -193 -6 -7 -7
-20 -4 -29 4 -11 -2 -26 -16 -41 -12 -13 -24 -36 -26 -50 -1 -15 -10 -33 -20
-40 -17 -12 -16 -14 12 -31 17 -11 32 -22 33 -27 1 -4 -31 -36 -70 -71 -66
-60 -72 -63 -87 -48 -10 10 -17 31 -16 52 1 26 0 28 -3 8 -2 -16 -7 -28 -11
-28 -4 1 -34 20 -67 43 -44 32 -61 50 -63 70 -4 32 -8 32 -51 11 l-32 -16 48
-33 c26 -19 68 -52 93 -75 24 -23 57 -48 72 -56 27 -14 27 -15 14 -52 -9 -22
-16 -95 -20 -181 -4 -128 -3 -150 16 -205 27 -78 92 -208 112 -226 14 -10 16
-26 11 -83 -6 -78 0 -90 53 -112 32 -14 41 -44 11 -37 -9 2 -7 -4 5 -17 24
-27 56 -28 49 -3 -4 15 5 21 50 32 67 16 127 11 240 -21 l87 -24 0 -386 c0
-393 0 -396 -41 -599 -6 -30 -23 -88 -36 -128 -26 -78 -69 -174 -58 -132 3 14
14 75 25 136 11 61 24 131 29 155 32 144 61 406 67 604 3 103 2 108 -12 82
-11 -19 -20 -92 -30 -215 -22 -294 -56 -509 -116 -740 -7 -30 -14 -39 -19 -30
-6 9 -9 6 -9 -11 0 -13 -2 -22 -5 -19 -5 5 5 86 30 238 32 198 44 868 16 918
-19 34 -24 -39 -19 -296 3 -142 1 -309 -4 -372 -7 -106 -35 -320 -42 -327 -2
-2 -6 113 -9 254 -4 142 -11 303 -17 358 -23 214 -73 413 -121 477 -35 45 -32
5 9 -125 67 -213 90 -373 99 -677 6 -221 -2 -273 -17 -108 -33 364 -49 472
-85 590 -12 42 -20 79 -17 83 4 3 1 9 -5 13 -6 4 -13 27 -16 52 -3 25 -6 46
-6 48 -1 2 -6 0 -11 -3 -7 -4 -7 -12 0 -25 5 -10 10 -28 10 -40 0 -19 -4 -21
-32 -15 -51 11 -78 23 -78 35 0 5 -7 10 -15 10 -21 0 -62 28 -69 47 -4 9 1 25
11 37 9 12 4 9 -12 -7 l-30 -27 52 -51 c29 -29 50 -56 46 -62 -3 -5 -1 -7 4
-4 14 9 84 -42 106 -77 23 -34 7 -34 -57 0 -36 19 -51 23 -60 14 -8 -8 -7 -9
7 -4 11 4 17 2 15 -6 -4 -15 39 -47 76 -56 22 -5 27 -4 21 6 -5 9 -4 11 3 6
19 -11 14 -34 -8 -41 -11 -3 -20 -10 -20 -14 0 -14 -58 -34 -71 -25 -9 5 -10
2 -5 -12 4 -10 10 -31 13 -46 5 -24 9 -26 34 -21 34 6 79 -19 79 -45 0 -15 2
-15 10 -2 17 25 25 -1 48 -148 33 -214 35 -240 19 -219 -8 9 -17 17 -21 17 -3
0 -6 -56 -6 -124 0 -69 -4 -127 -9 -131 -13 -7 -18 16 -26 110 -6 88 -23 220
-31 248 -10 34 -19 16 -22 -42 -3 -62 -9 -101 -15 -108 -8 -7 -47 33 -50 52
-10 55 -29 105 -38 99 -6 -3 -9 -17 -6 -30 2 -12 0 -29 -4 -36 -6 -9 -10 -3
-15 20 -4 17 -10 32 -15 32 -14 0 -11 -43 12 -143 19 -88 19 -193 0 -171 -5 5
-21 54 -35 109 -15 55 -39 136 -53 180 -22 66 -27 75 -34 57 -5 -12 -16 -22
-26 -23 -12 -1 -9 -3 7 -8 21 -6 27 -16 37 -66 10 -52 10 -60 -5 -71 -19 -14
-32 -2 -32 29 0 22 -5 22 -43 -5 -40 -28 -51 -44 -57 -88 l-5 -35 -16 30 c-9
17 -22 62 -30 100 -12 66 -14 68 -20 35 -4 -22 -7 -27 -8 -12 0 12 -5 22 -10
22 -11 0 -31 55 -31 86 0 19 -5 24 -24 24 -13 0 -26 6 -29 13 -6 19 -47 -22
-47 -47 0 -12 6 -30 13 -41 12 -18 37 -92 37 -109 0 -11 -23 -6 -84 18 -70 28
-397 106 -444 106 l-32 0 0 194 c0 200 -3 226 -25 226 -20 0 -25 81 -6 88 27
10 59 44 65 68 4 13 11 24 17 24 6 0 34 23 63 50 40 37 71 56 122 74 106 36
156 64 150 84 -11 37 -17 69 -21 117 -10 110 -18 155 -26 155 -5 0 -9 -4 -9
-9 0 -5 -8 -8 -17 -6 -10 2 -18 4 -18 5 0 1 -21 3 -47 4 -26 1 -45 -1 -43 -4
6 -9 -37 -6 -52 3 -6 4 -14 1 -16 -5 -4 -10 -6 -10 -6 0 -1 8 -6 10 -13 6 -7
-4 -9 -3 -5 2 9 10 58 14 52 4 -2 -4 3 -7 11 -7 10 0 6 9 -12 28 -17 17 -32
25 -43 21 -14 -5 -14 -4 -2 11 7 9 11 17 7 17 -7 0 -46 -61 -46 -73 0 -5 6 -5
13 -1 9 5 9 4 0 -6 -14 -15 -6 -43 11 -33 6 3 8 3 4 -2 -4 -4 -2 -15 5 -23 6
-9 -3 -5 -20 8 -18 13 -33 27 -33 31 0 18 42 99 55 107 11 6 13 17 9 40 -7 36
-15 39 -49 16 -13 -9 -30 -12 -37 -8 -7 4 -10 4 -6 -1 5 -5 -1 -15 -12 -22
-16 -11 -18 -18 -10 -33 13 -24 13 -60 0 -60 -14 0 -32 49 -26 67 4 9 -1 12
-17 8 -258 -58 -395 -80 -762 -120 -86 -9 -486 -33 -845 -51 -273 -13 -423
-15 -722 -9 l-377 7 -6 32 c-16 80 -25 94 -68 110 -23 8 -53 17 -67 20 -14 2
16 4 66 3 101 -2 104 1 78 60 -11 24 -32 41 -77 64 -80 41 -148 51 -206 32
-24 -8 -55 -12 -69 -8 -14 3 -60 10 -101 15 -42 5 -90 12 -106 15 l-30 7 3
-47 c2 -25 -2 -59 -8 -76 -7 -17 -14 -41 -16 -54 l-2 -24 146 1 c209 1 212 1
212 -19 0 -14 -2 -15 -9 -5 -5 9 -11 -8 -15 -47 -6 -55 -9 -61 -30 -61 -20 0
-225 19 -250 23 -6 1 -11 -5 -13 -14 -5 -23 35 -36 152 -50 55 -6 129 -20 164
-30 35 -10 80 -19 101 -19 24 0 40 -5 44 -15 7 -19 56 -20 56 -1 0 20 16 29
40 21 25 -8 25 -22 0 -43 -17 -15 -18 -20 -7 -42 7 -14 22 -26 33 -28 18 -3
23 5 33 42 6 25 11 54 11 65 0 24 11 25 208 15 l120 -7 17 -61 c9 -34 34 -131
56 -216 44 -172 110 -381 143 -450 13 -26 20 -58 18 -77 -3 -29 -7 -32 -55
-44 -29 -6 -83 -23 -121 -36 -38 -12 -71 -21 -74 -18 -2 2 -13 46 -23 97 -60
289 -123 489 -172 545 -39 44 -64 56 -172 82 -49 12 -126 32 -170 44 -71 20
-80 25 -83 48 -3 25 -9 27 -170 63 -92 20 -205 41 -252 46 -124 15 -291 51
-284 62 11 17 -6 56 -32 73 -14 9 -85 32 -157 50 -154 39 -205 59 -268 108
l-47 35 -40 -53 c-21 -30 -52 -83 -67 -119 -28 -65 -28 -66 -67 -66 -28 0 -37
4 -33 13 4 6 0 4 -9 -7 -14 -17 -15 -17 -25 15 -5 19 -10 28 -10 21 -1 -7 -6
-10 -11 -7 -6 4 -8 11 -5 16 4 5 1 9 -5 9 -6 0 -8 4 -5 10 3 6 2 10 -3 10 -5
0 -14 33 -20 72 -6 40 -16 74 -22 76 -5 2 -10 10 -10 18 0 8 -4 14 -10 14 -5
0 -10 -9 -10 -19 0 -38 -18 -30 -31 14 -7 25 -17 45 -21 45 -4 0 -8 7 -8 16 0
9 -14 60 -31 115 -30 97 -49 119 -49 57 0 -50 -9 -28 -11 27 -1 28 -8 60 -16
73 -8 13 -12 30 -9 38 6 16 105 64 134 65 14 0 14 2 -3 9 -11 5 -14 9 -7 9 17
1 46 69 43 99 -1 12 1 22 6 22 5 0 9 67 10 149 1 149 1 150 -28 195 -16 25
-34 46 -41 46 -6 0 -23 -10 -37 -22 l-26 -23 25 28 24 28 -29 23 -29 24 27 51
c16 28 25 56 22 61 -9 14 -25 2 -25 -18 0 -10 -16 -42 -35 -72 -19 -30 -35
-62 -35 -72 0 -29 -21 -32 -64 -10 -23 11 -57 25 -76 30 l-35 10 38 1 c27 1
46 9 69 31 17 17 37 30 44 30 18 0 74 49 74 66 0 24 -72 10 -121 -23 -24 -16
-66 -43 -94 -58 -77 -44 -84 -52 -75 -85 7 -24 3 -33 -31 -66 -38 -37 -39 -37
-54 -18 -37 49 -37 122 1 107 8 -3 14 1 14 8 0 23 67 150 86 163 17 13 17 16
-5 72 -18 50 -104 194 -115 194 -1 0 -23 -10 -47 -23 -51 -27 -91 -94 -109
-184 -10 -47 -9 -61 9 -115 12 -34 21 -77 21 -95 0 -57 -47 -133 -82 -133 -14
0 -18 -8 -18 -40 0 -39 1 -40 35 -40 20 0 49 7 65 15 29 15 30 15 46 -17 55
-107 78 -249 50 -322 -15 -40 -15 -47 -1 -91 9 -26 14 -49 11 -52 -7 -7 -26
42 -26 66 0 24 -20 48 -47 56 -23 6 -32 -8 -13 -20 17 -11 11 -25 -17 -38 -38
-17 -116 -93 -109 -106 4 -5 2 -12 -4 -16 -16 -10 -12 -37 16 -127 41 -128 58
-160 109 -192 25 -15 44 -31 41 -33 -2 -3 -17 4 -33 15 -15 11 -55 28 -87 37
-32 9 -69 23 -82 32 l-24 15 0 1134 c0 1004 2 1133 15 1128 8 -4 13 -10 10
-14 -4 -6 119 -30 155 -30 13 0 40 54 40 79 0 15 15 28 50 46 28 14 68 41 89
60 21 19 41 35 45 35 4 0 14 -16 21 -35 11 -24 12 -41 5 -60 -24 -64 -40 -158
-29 -171 7 -9 9 -35 6 -71 -5 -52 -5 -54 4 -19 5 22 17 48 25 58 24 26 130 78
159 78 16 0 28 7 31 18 3 9 10 25 15 35 12 22 3 69 -19 112 -9 17 -16 35 -17
40 0 6 -11 10 -25 11 -14 0 -36 5 -50 11 -14 6 -28 9 -32 6 -4 -2 -5 4 -1 14
6 16 5 16 -10 4 -9 -7 -17 -10 -18 -5 0 5 -1 36 -2 69 -2 54 -4 60 -28 69 -22
7 -33 4 -60 -16 -19 -14 -39 -28 -46 -32 -14 -8 -83 50 -83 71 0 8 -4 12 -9 8
-5 -3 -12 -1 -15 3 -9 15 -49 6 -56 -12 -5 -15 -8 -14 -20 8 -7 14 -20 26 -27
26 -9 0 -11 -5 -7 -12 4 -7 -2 -4 -14 6 -12 11 -24 17 -27 14 -3 -3 -8 -28
-12 -55 -5 -45 -3 -53 26 -86 32 -36 92 -64 111 -52 6 3 10 -3 10 -15 0 -12 5
-30 11 -41 16 -32 2 -59 -31 -59 -30 0 -98 27 -113 45 -5 6 -7 3 -3 -7 3 -10
1 -18 -5 -18 -6 0 -7 -5 -3 -12 5 -7 2 -9 -8 -5 -16 6 -38 -10 -38 -27 0 -5 7
-1 15 10 8 10 15 14 15 7 0 -13 -17 -26 -37 -29 -10 -2 -13 141 -13 687 l0
689 170 1 c210 2 210 2 209 14 -1 6 -6 9 -11 7 -6 -2 -8 4 -4 13 3 9 2 14 -3
10 -5 -3 -12 1 -15 7 -3 7 -4 2 -1 -12 3 -14 2 -19 -1 -12 -3 6 -10 9 -16 6
-6 -4 -5 3 1 15 7 12 9 27 5 34 -4 6 2 4 13 -6 16 -14 20 -14 20 -2 0 8 -4 12
-8 10 -4 -3 -10 2 -13 11 -3 9 -11 12 -18 8 -7 -4 -9 -3 -5 1 11 13 38 15 31
3 -5 -7 -2 -8 5 -4 7 5 10 15 7 25 -4 11 -2 10 10 -4 16 -20 16 -20 9 4 -4 13
-3 21 2 18 5 -3 9 4 10 16 0 12 2 29 4 37 4 13 -59 15 -508 18 l-513 2 0
-3455z m1010 3430 c-6 -8 -9 -19 -5 -24 4 -7 0 -8 -10 -5 -14 6 -14 8 1 25 20
22 32 26 14 4z m-193 -1387 c-3 -8 -6 -5 -6 6 -1 11 2 17 5 13 3 -3 4 -12 1
-19z m73 -1553 c0 -6 -38 -22 -77 -31 -31 -8 -23 12 11 26 24 10 66 13 66 5z
m310 -115 c-8 -5 -24 -9 -35 -9 l-20 0 20 9 c11 5 27 9 35 9 13 1 13 0 0 -9z
m-81 -105 c-28 -95 -29 -99 -35 -93 -6 7 23 124 38 151 18 35 17 11 -3 -58z
m214 55 c-3 -11 -7 -20 -9 -20 -2 0 -4 9 -4 20 0 11 4 20 9 20 5 0 7 -9 4 -20z
m5859 -146 c19 -12 92 -103 87 -109 -3 -2 -23 13 -45 33 -44 40 -84 103 -84
130 1 9 7 3 14 -14 8 -18 20 -36 28 -40z m-6124 1 c-3 -3 -9 2 -12 12 -6 14
-5 15 5 6 7 -7 10 -15 7 -18z m112 -291 c0 -2 -7 -4 -15 -4 -8 0 -15 4 -15 10
0 5 7 7 15 4 8 -4 15 -8 15 -10z m-108 -26 c-9 -9 -12 -7 -12 12 0 19 3 21 12
12 9 -9 9 -15 0 -24z m25 -150 c-3 -8 -6 -5 -6 6 -1 11 2 17 5 13 3 -3 4 -12
1 -19z m-144 -148 c24 -80 49 -160 53 -179 l9 -34 54 47 c30 25 58 46 63 46
18 0 5 -22 -48 -79 -41 -45 -54 -66 -49 -78 4 -10 8 -54 10 -98 l4 -80 -14 51
c-8 28 -21 91 -30 140 -10 49 -37 157 -62 239 -24 83 -46 159 -50 170 -3 14
-2 17 5 10 6 -5 30 -75 55 -155z m262 140 c3 -5 -1 -10 -9 -10 -8 0 -18 5 -21
10 -3 6 1 10 9 10 8 0 18 -4 21 -10z m5 -205 c0 -5 -5 -3 -10 5 -5 8 -10 20
-10 25 0 6 5 3 10 -5 5 -8 10 -19 10 -25z m-510 -40 c57 -8 64 -15 16 -15 -20
0 -52 -7 -71 -14 -34 -15 -35 -14 -35 8 0 28 9 38 29 32 9 -3 36 -8 61 -11z
m2336 -30 c18 -14 18 -14 -7 -15 -16 0 -30 -7 -34 -17 -7 -16 -9 -14 -15 7 -4
14 -5 28 -3 33 7 12 38 8 59 -8z m-2152 -115 c20 -50 36 -96 36 -103 0 -6 -16
26 -35 72 -40 97 -48 121 -42 121 3 0 21 -41 41 -90z m2313 6 c12 -15 23 -38
23 -51 0 -13 3 -30 6 -39 5 -12 -1 -16 -24 -16 -40 0 -62 9 -62 25 0 19 -30
88 -36 82 -3 -3 2 -22 10 -42 9 -21 16 -41 16 -46 0 -11 -63 -12 -110 -3 l-32
7 6 55 c4 30 8 58 10 61 3 4 41 4 87 0 73 -5 85 -9 106 -33z m-2007 -7 c0 -17
-4 -28 -10 -24 -5 3 -10 17 -10 31 0 13 5 24 10 24 6 0 10 -14 10 -31z m4940
16 c11 -13 10 -14 -4 -9 -9 3 -16 10 -16 15 0 13 6 11 20 -6z m-4959 -205 c-6
-56 -16 -109 -22 -118 -8 -14 -9 -13 -5 8 2 14 10 69 17 123 6 54 13 96 16 94
2 -3 -1 -51 -6 -107z m309 5 c-5 -15 -9 -8 -14 26 -4 25 -3 54 1 65 10 26 23
-63 13 -91z m-512 3 l-1 -43 -12 29 c-9 22 -10 33 -1 42 6 7 12 13 13 14 1 0
1 -19 1 -42z m5342 -23 c6 -7 0 -11 -16 -13 -27 -2 -31 16 -12 51 l13 22 3
-25 c2 -14 8 -30 12 -35z m-4710 -7 c0 -11 -11 -10 -48 3 -18 6 -30 14 -27 19
5 9 75 -12 75 -22z m4576 -88 c-16 -5 -92 -14 -170 -20 -231 -18 -266 -21
-266 -28 0 -4 9 -20 19 -36 11 -16 18 -37 16 -46 -2 -10 6 -23 20 -30 13 -7
26 -23 29 -36 3 -13 20 -31 37 -41 l31 -18 -7 -105 c-4 -58 -7 -116 -7 -130 1
-139 3 -180 10 -176 5 3 9 -1 9 -9 0 -8 -4 -12 -8 -9 -5 2 -7 -25 -5 -61 4
-64 -5 -80 -30 -55 -6 6 -44 5 -108 -5 -55 -8 -102 -13 -104 -10 -3 3 9 87 26
187 50 288 55 325 56 470 l1 137 60 5 c69 7 333 23 385 24 l35 0 -29 -8z
m-5102 -67 c9 -68 12 -421 3 -429 -16 -16 -21 13 -24 149 -5 230 -7 249 -13
122 -5 -113 -6 -118 -17 -80 -6 22 -15 76 -18 120 -6 72 -5 83 13 105 l21 25
-5 -25 c-4 -22 -3 -23 5 -5 5 11 10 30 10 43 2 40 19 23 25 -25z m6041 -133
c-3 -5 -19 -10 -35 -10 -16 0 -32 5 -35 10 -4 6 10 10 35 10 25 0 39 -4 35
-10z m17 -59 c5 -18 7 -35 5 -37 -2 -2 -18 14 -36 37 l-33 41 28 -4 c22 -2 30
-10 36 -37z m-96 -27 c18 -14 18 -14 -6 -3 -31 14 -36 19 -24 19 6 0 19 -7 30
-16z m-4300 -130 c-23 -59 -28 -115 -22 -236 14 -310 17 -424 9 -435 -7 -10
-46 -6 -173 18 -91 16 -173 32 -182 35 -16 5 -18 20 -18 125 0 97 -3 121 -15
125 -10 4 -15 20 -15 51 0 40 3 45 30 55 41 14 47 45 20 98 -12 23 -19 48 -17
54 4 9 46 15 142 19 101 4 142 10 161 22 23 15 24 17 9 38 -26 37 -19 47 31
47 39 0 45 -3 40 -16z m-1476 -64 c0 -11 -4 -20 -9 -20 -5 0 -7 9 -4 20 3 11
7 20 9 20 2 0 4 -9 4 -20z m2636 -227 c-7 -7 -26 7 -26 19 0 6 6 6 15 -2 9 -7
13 -15 11 -17z m2694 -140 c-12 -3 -15 -14 -12 -46 l3 -42 -20 35 c-30 53 -28
68 12 61 17 -3 25 -6 17 -8z m-960 -65 c0 -18 -2 -20 -9 -8 -6 8 -7 18 -5 22
9 14 14 9 14 -14z m1177 -31 c1 -18 18 -77 36 -132 19 -55 37 -116 41 -135 5
-30 3 -27 -19 19 -14 30 -23 61 -20 69 3 8 0 12 -7 9 -13 -4 -48 28 -48 43 0
4 -9 10 -20 13 -14 3 -20 14 -20 31 0 17 -5 26 -16 26 -29 0 -12 52 25 77 39
26 44 24 48 -20z m86 -72 c31 -99 37 -126 27 -120 -15 9 -81 188 -75 203 9 24
20 4 48 -83z m-5515 -20 l-3 -40 -12 49 c-6 27 -9 56 -5 64 9 25 23 -26 20
-73z m5179 25 c8 -11 11 -20 7 -20 -16 0 -74 52 -74 66 0 12 5 11 27 -6 15
-11 33 -30 40 -40z m953 -104 c-5 -5 -10 -18 -10 -27 0 -28 -98 -225 -107
-216 -3 3 6 41 20 84 13 43 42 134 63 202 l39 124 3 -78 c2 -45 -2 -83 -8 -89z
m-828 109 c8 -33 5 -40 -17 -32 -9 4 -15 19 -15 38 0 38 21 35 32 -6z m-6065
-52 c-2 -16 -4 -3 -4 27 0 30 2 43 4 28 2 -16 2 -40 0 -55z m298 -151 c-3 -3
-11 0 -18 7 -9 10 -8 11 6 5 10 -3 15 -9 12 -12z m6460 -39 c-3 -21 -11 -42
-17 -48 -8 -7 -9 -4 -4 10 4 11 10 32 13 48 3 15 8 27 10 27 3 0 2 -17 -2 -37z
m145 -38 l0 -65 -40 -20 c-21 -11 -42 -20 -45 -20 -5 0 77 167 83 169 1 1 2
-28 2 -64z m-202 -7 c-6 -21 -15 -35 -19 -32 -5 3 -6 -2 -3 -10 4 -11 0 -16
-10 -16 -9 0 -16 6 -16 13 0 26 20 81 32 88 21 13 28 -5 16 -43z m-783 22 c-3
-5 -12 -7 -20 -3 -21 7 -19 13 6 13 11 0 18 -4 14 -10z m722 -604 c-15 -22
-15 -26 3 -49 24 -30 24 -34 6 -34 -8 0 -12 6 -8 15 3 10 1 13 -7 8 -6 -4 -11
-4 -10 1 4 22 -2 34 -13 27 -10 -6 -10 -5 -1 7 10 12 10 18 0 29 -6 7 -7 10
-2 7 6 -3 17 -2 25 4 23 14 24 11 7 -15z m33 -172 c0 -7 -4 -15 -9 -18 -4 -3
-6 6 -3 21 3 17 1 24 -6 19 -6 -3 -14 -1 -18 5 -4 8 -3 9 5 5 8 -6 10 0 6 21
-6 26 -5 25 10 -6 8 -18 15 -39 15 -47z m-29 -57 c-10 -9 -11 -8 -5 6 3 10 9
15 12 12 3 -3 0 -11 -7 -18z"/>
<path d="M7493 1385 c0 -7 6 -11 14 -8 7 3 13 6 13 8 0 2 -6 5 -13 8 -8 3 -14
-1 -14 -8z"/>
<path d="M4757 6541 l6 -370 -322 -3 -323 -3 -25 -29 c-42 -49 -12 -109 63
-126 21 -5 166 -10 321 -10 l283 0 3 -227 2 -228 3 228 2 227 223 0 c122 0
239 5 259 10 74 21 102 102 48 141 -19 15 -44 19 -112 20 l-88 1 -1 167 c0 91
-2 177 -3 191 -1 14 -3 53 -4 88 l-2 62 -40 0 -40 0 0 -255 0 -255 -120 0
-120 0 0 370 c0 232 -4 370 -10 370 -6 0 -7 -134 -3 -369z"/>
<path d="M6848 6498 c-2 -227 -2 -450 0 -495 l3 -83 27 1 c19 1 21 3 7 6 -20
4 -20 10 -17 493 3 341 0 490 -7 490 -7 0 -11 -130 -13 -412z"/>
<path d="M2329 6672 c-1 -4 0 -143 1 -309 l2 -303 -74 0 c-95 0 -118 -14 -118
-74 0 -67 16 -80 104 -84 l76 -4 1 -182 c1 -99 3 -389 4 -643 l3 -462 -34 -11
c-47 -16 -88 -72 -87 -119 1 -20 -1 -55 -3 -79 -5 -37 -9 -44 -42 -58 -63 -26
-82 -51 -82 -107 0 -33 -6 -57 -17 -69 -20 -22 -30 -117 -14 -146 9 -16 7 -30
-8 -66 -24 -56 -55 -73 -142 -78 -75 -5 -91 -13 -219 -113 -102 -79 -150 -125
-150 -142 0 -19 -32 -85 -53 -109 -13 -15 -16 -29 -11 -48 6 -25 9 -26 54 -20
42 6 49 4 64 -17 9 -13 19 -44 22 -70 5 -37 12 -49 35 -63 16 -9 29 -24 29
-32 0 -8 6 -14 13 -14 20 0 49 -61 45 -94 -2 -24 -9 -31 -35 -38 -69 -18 -48
-55 34 -60 l55 -3 -6 49 c-3 27 -2 45 2 42 4 -4 7 -13 7 -19 0 -7 12 -12 28
-12 25 0 32 9 86 126 33 69 89 194 125 277 83 192 181 363 199 345 4 -3 7 -1
7 6 0 7 5 9 10 6 6 -4 10 -3 9 2 -3 13 21 66 45 98 12 16 26 37 31 45 7 12 6
13 -6 3 -12 -10 -18 -10 -27 -1 -18 18 -132 27 -164 13 -11 -4 -18 -3 -18 4 0
24 69 25 248 5 28 -3 65 -1 81 4 28 10 29 9 35 -23 4 -19 24 -52 47 -77 l40
-43 -32 49 c-17 27 -35 64 -39 82 -7 31 -5 36 20 49 37 19 40 19 40 -5 0 -12
19 -39 43 -61 33 -31 47 -38 67 -34 24 6 54 33 75 69 9 16 13 16 58 -4 28 -13
58 -19 71 -16 25 6 76 72 76 99 0 10 8 17 19 17 27 0 34 30 20 84 -10 39 -9
54 6 92 22 57 16 125 -14 165 l-22 30 21 26 c23 29 20 68 -7 109 -25 38 -100
59 -157 43 -33 -9 -40 -8 -52 9 -19 27 -75 52 -118 52 -38 0 -104 -28 -125
-53 -6 -8 -28 -18 -47 -21 -25 -5 -41 -16 -54 -39 -20 -32 -20 -31 -20 592 l0
623 29 -4 c25 -4 30 -1 35 24 l6 28 377 1 c208 1 370 3 360 6 -9 2 -15 9 -11
14 3 5 0 8 -7 7 -8 -2 -14 8 -14 27 -2 37 4 57 15 50 9 -5 23 25 16 33 -3 2
-186 7 -408 10 l-403 5 5 218 c3 119 8 221 13 225 4 4 7 2 7 -4 0 -7 5 -12 11
-12 5 0 7 5 3 12 -4 7 -3 8 5 4 16 -10 3 -29 -16 -22 -8 3 -11 2 -8 -3 3 -6
14 -9 25 -8 18 1 20 9 22 89 0 48 1 93 2 99 1 11 -123 23 -125 11z m366 -1942
c17 -7 16 -9 -10 -9 -16 0 -37 4 -45 9 -12 8 -10 10 10 9 14 0 34 -4 45 -9z
m-981 -1142 c-6 -22 -6 -22 19 -5 32 20 38 21 31 4 -5 -14 -33 -28 -146 -70
-90 -34 -87 -18 3 18 50 20 74 36 80 52 11 29 23 30 13 1z m6 -103 c0 -8 -4
-15 -10 -15 -5 0 -7 7 -4 15 4 8 8 15 10 15 2 0 4 -7 4 -15z"/>
<path d="M3291 6580 c-6 -380 -5 -505 4 -508 13 -3 18 450 6 544 l-8 69 -2
-105z"/>
<path d="M3745 6115 c0 -313 1 -440 2 -282 2 159 2 415 0 570 -1 155 -2 26 -2
-288z"/>
<path d="M1480 6624 c-71 -11 -93 -18 -133 -45 -122 -81 -129 -254 -12 -338
78 -56 188 -81 202 -45 5 13 7 13 14 2 7 -10 9 -9 9 3 0 9 8 23 18 30 14 11
15 11 5 -1 -23 -25 -14 -32 13 -11 15 11 30 18 34 16 11 -7 51 50 42 60 -4 5
-1 5 6 0 10 -5 11 -10 3 -18 -6 -6 -11 -15 -11 -20 0 -5 9 2 21 17 11 14 25
23 31 20 7 -4 8 -2 4 4 -4 7 4 23 17 36 14 14 22 27 19 30 -3 3 0 6 6 6 14 0
16 59 3 93 -16 41 -71 97 -122 122 -44 23 -135 43 -169 39z m230 -319 c-7 -9
-15 -13 -19 -10 -3 3 1 10 9 15 21 14 24 12 10 -5z m-79 -52 c13 -16 12 -17
-3 -4 -10 7 -18 15 -18 17 0 8 8 3 21 -13z"/>
<path d="M4282 6600 c0 -14 2 -19 5 -12 2 6 2 18 0 25 -3 6 -5 1 -5 -13z"/>
<path d="M5928 6378 l3 -178 48 0 c46 0 49 1 55 31 3 17 6 82 6 144 l0 112
-57 34 -58 34 3 -177z m33 125 c13 -16 12 -17 -3 -4 -10 7 -18 15 -18 17 0 8
8 3 21 -13z"/>
<path d="M4190 6496 c0 -2 7 -6 15 -10 8 -3 15 -1 15 4 0 6 -7 10 -15 10 -8 0
-15 -2 -15 -4z"/>
<path d="M3420 6445 c5 -7 7 -15 3 -18 -3 -4 -12 1 -19 11 -12 16 -12 16 -11
-3 1 -14 -3 -19 -15 -17 -10 2 -18 -2 -18 -9 0 -8 -4 -8 -15 1 -13 11 -15 8
-15 -16 0 -34 31 -89 57 -102 39 -20 91 -23 131 -7 41 17 58 38 45 57 -4 7 -1
8 7 3 11 -7 11 19 1 83 -1 2 -7 0 -13 -5 -7 -4 -35 -8 -61 -8 -35 0 -51 4 -57
16 -5 9 -7 18 -5 21 3 3 -2 5 -10 5 -10 0 -12 -4 -5 -12z"/>
<path d="M3453 6437 c0 -12 1 -16 4 -8 5 11 7 11 14 0 5 -8 9 -9 9 -3 0 6 -6
16 -13 22 -10 8 -13 6 -14 -11z"/>
<path d="M3346 6431 c8 -8 43 -8 38 0 -2 4 -13 7 -24 6 -10 -1 -17 -3 -14 -6z"/>
<path d="M4027 6393 c-14 -14 -7 -43 11 -43 24 0 42 19 35 36 -5 15 -35 19
-46 7z"/>
<path d="M1745 6330 c-3 -6 1 -7 9 -4 18 7 21 14 7 14 -6 0 -13 -4 -16 -10z"/>
<path d="M7190 6241 c0 -5 9 -7 20 -4 11 3 20 7 20 9 0 2 -9 4 -20 4 -11 0
-20 -4 -20 -9z"/>
<path d="M1595 6201 c-3 -5 -2 -12 3 -15 5 -3 9 1 9 9 0 17 -3 19 -12 6z"/>
<path d="M6651 6161 c17 -23 20 -37 15 -64 -4 -19 -13 -40 -21 -47 -8 -7 -15
-16 -15 -21 0 -12 137 -11 160 1 24 13 41 64 33 101 -9 45 -37 59 -121 59
l-73 0 22 -29z"/>
<path d="M1620 6150 c0 -6 7 -10 15 -10 8 0 15 2 15 4 0 2 -7 6 -15 10 -8 3
-15 1 -15 -4z"/>
<path d="M7401 6137 c-9 -11 -8 -17 4 -27 19 -16 47 -5 43 17 -4 23 -31 28
-47 10z"/>
<path d="M2908 6103 c7 -3 16 -2 19 1 4 3 -2 6 -13 5 -11 0 -14 -3 -6 -6z"/>
<path d="M7064 6076 c-41 -18 -49 -33 -24 -41 22 -7 73 21 78 43 3 15 -15 15
-54 -2z"/>
<path d="M3480 6021 c0 -6 18 -14 40 -17 22 -4 43 -11 46 -15 8 -14 24 -10 24
5 0 20 -7 23 -62 31 -33 5 -48 4 -48 -4z"/>
<path d="M1765 6000 c3 -5 16 -10 28 -9 21 0 21 1 2 9 -28 12 -37 12 -30 0z"/>
<path d="M6015 5998 c-2 -7 -6 -35 -8 -63 -3 -27 -7 -58 -9 -67 -6 -26 -18
-34 -13 -10 2 15 0 19 -11 15 -7 -3 -11 -10 -7 -16 3 -6 1 -7 -6 -3 -9 6 -9
11 0 22 10 12 9 13 -5 8 -11 -4 -16 0 -17 12 -1 11 -5 -8 -10 -41 -9 -72 -15
-1077 -6 -1092 4 -5 -3 -27 -13 -49 -22 -41 -26 -107 -10 -148 14 -39 2 -31
-14 9 -18 43 -40 45 -61 5 -14 -27 -17 -103 -4 -95 3 2 29 -22 57 -55 47 -53
51 -61 42 -85 -5 -14 -10 -55 -10 -91 0 -68 -3 -73 -30 -49 -9 8 -48 19 -86
24 -38 5 -82 14 -97 20 -15 6 -43 10 -61 8 -33 -2 -34 -3 -49 -77 -23 -107
-26 -817 -4 -903 l15 -58 -34 -26 c-61 -46 -65 -37 -84 212 -11 141 -16 517
-9 589 4 41 -1 47 -55 66 l-28 10 37 41 c47 53 115 157 115 178 0 9 -7 27 -16
40 -15 20 -15 33 -5 105 37 266 -10 336 -230 336 -99 0 -175 -19 -213 -55 -15
-14 -34 -25 -42 -25 -23 0 -16 -24 15 -54 28 -27 28 -29 29 -139 0 -83 -4
-118 -14 -135 -22 -34 -14 -64 21 -76 23 -8 31 -18 33 -41 2 -16 12 -53 22
-82 10 -28 21 -70 25 -92 6 -38 4 -43 -29 -75 -35 -32 -36 -36 -36 -104 0
-105 -17 -205 -54 -327 -40 -130 -47 -136 -134 -111 -74 21 -73 21 -62 -10 14
-36 12 -94 -6 -129 -14 -30 -14 -30 -10 20 2 28 0 73 -4 100 -8 49 -8 51 25
78 52 43 87 94 80 117 -4 11 -11 20 -17 20 -13 0 -48 39 -48 53 0 5 6 5 13 -2
8 -6 17 -8 20 -4 4 3 7 0 7 -7 0 -9 5 -7 14 6 14 18 15 18 25 -6 6 -15 10 -19
10 -9 1 16 -16 36 -31 38 -19 3 -78 36 -78 43 0 5 -4 6 -10 3 -5 -3 -10 -1
-10 4 0 13 25 14 68 2 21 -6 32 -6 32 0 0 6 5 7 10 4 6 -3 10 -2 10 3 0 5 -12
14 -26 20 l-25 12 21 27 c11 15 30 33 40 40 24 17 26 39 4 51 -17 10 -12 52 7
52 5 0 9 9 9 20 0 25 -10 25 -55 -1 -40 -24 -56 -19 -36 13 7 11 8 17 3 14
-17 -10 -20 17 -6 45 10 20 13 125 14 470 2 793 1 826 -14 806 -9 -12 -16 -14
-21 -7 -4 7 -17 2 -35 -14 -29 -24 -52 -26 -125 -11 -46 9 -49 10 -72 23 -27
15 -39 0 -15 -20 36 -32 64 -40 135 -37 80 4 76 10 57 -76 -13 -58 -19 -984
-7 -1027 6 -22 4 -28 -9 -28 -11 0 -14 -5 -9 -17 16 -43 36 -135 30 -141 -4
-4 -12 -7 -18 -7 -7 0 -11 -8 -9 -18 2 -9 -1 -17 -6 -17 -6 0 -13 -16 -16 -36
l-7 -35 -35 26 -34 26 0 -30 c0 -20 -5 -31 -14 -31 -9 0 -12 -8 -8 -25 6 -32
-13 -55 -47 -55 -27 0 -71 -24 -71 -40 0 -10 56 -30 86 -30 29 0 30 -7 5 -34
-11 -12 -23 -33 -26 -48 -7 -25 -5 -28 20 -28 14 0 35 -5 46 -10 13 -8 25 -7
39 0 15 8 20 8 20 -3 0 -8 -11 -19 -24 -25 -13 -6 -27 -20 -31 -31 -9 -30 38
-127 66 -134 16 -4 20 -10 14 -24 -18 -48 -18 -81 3 -92 11 -6 29 -8 39 -5 16
5 16 4 2 -8 -9 -7 -19 -23 -23 -36 -4 -12 -12 -22 -17 -22 -5 0 -20 -13 -35
-29 -14 -16 -40 -32 -57 -35 l-32 -7 24 -20 c18 -15 27 -17 37 -8 11 9 14 8
14 -3 0 -9 -19 -23 -42 -32 -24 -9 -55 -27 -71 -40 -23 -20 -25 -25 -12 -36
17 -14 67 -1 95 25 15 13 25 14 66 3 55 -14 74 -25 74 -44 0 -8 -20 -15 -57
-19 -111 -11 -125 -25 -21 -20 l97 4 11 -33 c20 -60 50 -79 137 -84 l78 -4 20
57 19 58 -22 15 c-24 16 -28 42 -11 73 10 19 10 19 36 -1 16 -12 30 -17 37
-11 6 4 27 11 48 15 20 4 39 14 42 22 5 12 2 15 -9 10 -9 -3 -13 -2 -10 3 3 5
1 12 -4 15 -5 4 -9 19 -9 35 1 27 3 29 27 19 127 -51 144 -53 358 -51 198 2
205 2 294 33 50 17 120 45 155 62 l63 31 78 -28 c48 -18 90 -41 111 -61 35
-35 39 -31 18 19 -16 38 -46 67 -104 100 l-43 24 30 12 c65 27 68 37 81 258
13 212 9 328 -12 350 -7 7 -31 19 -53 26 -22 8 -40 20 -40 28 0 10 -20 17 -65
23 -36 4 -67 10 -69 12 -5 5 -1 167 5 173 3 3 14 -1 25 -8 14 -8 9 3 -15 35
-38 49 -45 67 -23 58 33 -12 117 47 117 83 0 35 -22 73 -42 73 -22 0 -22 -6
-3 -60 l15 -42 -28 7 c-41 10 -47 21 -47 83 0 45 -5 61 -23 81 -21 23 -22 32
-20 129 2 67 7 107 14 109 8 3 10 -13 8 -47 -1 -27 2 -50 7 -50 5 0 9 25 9 56
0 36 4 53 11 49 9 -6 89 38 89 49 0 2 -16 -1 -35 -6 -57 -18 -67 -1 -65 106 6
325 -1 1146 -10 1146 -6 0 -12 -6 -15 -12z m-28 -1265 c-3 -10 -5 -4 -5 12 0
17 2 24 5 18 2 -7 2 -21 0 -30z m-38 -137 c-3 -3 -11 5 -18 17 -13 21 -12 21
5 5 10 -10 16 -20 13 -22z m-23 -12 c2 -12 0 -14 -9 -5 -6 6 -12 18 -13 27 -2
12 0 14 9 5 6 -6 12 -18 13 -27z m-776 -84 c0 -5 -2 -10 -4 -10 -3 0 -8 5 -11
10 -3 6 -1 10 4 10 6 0 11 -4 11 -10z m-53 -52 c-3 -7 -5 -2 -5 12 0 14 2 19
5 13 2 -7 2 -19 0 -25z m866 -33 c-3 -10 1 -15 15 -15 23 0 32 -18 32 -62 0
-40 -24 -32 -28 10 -4 39 -22 43 -23 5 0 -24 -1 -25 -8 -8 -10 25 -2 97 10 90
4 -3 6 -12 2 -20z m-604 -279 c15 -38 20 -64 16 -88 -4 -20 0 -51 9 -79 14
-41 14 -63 -4 -249 -11 -113 -20 -228 -20 -257 0 -31 -6 -57 -14 -65 -9 -9
-11 -21 -5 -40 6 -23 5 -28 -11 -28 -26 0 -31 55 -33 361 -2 197 1 260 11 272
9 10 10 17 2 22 -24 15 -6 205 20 205 3 0 16 -24 29 -54z m-399 -140 c0 -2 -8
-10 -17 -17 -16 -13 -17 -12 -4 4 13 16 21 21 21 13z m-62 -103 c-2 -12 -13
-18 -32 -18 -38 0 -45 22 -9 28 15 2 32 5 36 6 5 0 7 -7 5 -16z m-18 -243 c0
-5 -10 -10 -22 -10 -19 0 -20 2 -8 10 19 13 30 13 30 0z m396 -295 c-2 -5 -11
6 -19 25 -12 26 -13 39 -4 55 10 18 12 15 19 -25 4 -25 6 -49 4 -55z m79 -55
c-3 -5 -11 -10 -16 -10 -6 0 -7 5 -4 10 3 6 11 10 16 10 6 0 7 -4 4 -10z m-2
-130 c44 -27 14 -34 -33 -8 -22 13 -40 27 -40 31 0 11 36 -1 73 -23z m-526
-30 c-3 -11 -1 -20 4 -20 6 0 5 -8 -1 -20 -6 -11 -7 -20 -2 -20 16 0 21 -39 6
-51 -13 -11 -18 -6 -15 14 1 4 -6 24 -14 44 -14 33 -14 38 1 55 22 23 28 23
21 -2z"/>
<path d="M3177 5987 c-3 -8 1 -14 8 -14 7 0 11 6 8 14 -3 7 -6 13 -8 13 -2 0
-5 -6 -8 -13z"/>
<path d="M6945 5898 c57 -29 75 -47 97 -96 16 -35 18 -56 13 -102 -6 -54 -5
-60 17 -74 12 -8 30 -16 38 -18 8 -2 18 -7 22 -13 4 -5 30 -12 59 -15 l53 -5
11 -53 c13 -57 25 -78 25 -44 0 11 5 24 10 27 15 9 2 25 -15 18 -12 -4 -15 4
-15 33 0 33 -6 44 -35 67 -22 18 -35 36 -35 52 0 23 -82 125 -101 125 -5 0
-28 21 -51 46 -23 25 -57 52 -76 60 -51 21 -63 16 -17 -8z m250 -278 c-5 -8
-11 -8 -17 -2 -6 6 -7 16 -3 22 5 8 11 8 17 2 6 -6 7 -16 3 -22z"/>
<path d="M6694 5868 l-19 -23 23 19 c21 18 27 26 19 26 -2 0 -12 -10 -23 -22z"/>
<path d="M3248 5846 l-47 -31 0 -798 c-1 -439 -4 -797 -8 -795 -5 2 -21 10
-37 18 -26 13 -30 13 -47 -9 -32 -39 -24 -56 39 -84 31 -14 72 -28 90 -32 17
-4 32 -8 32 -9 0 -12 -50 -139 -109 -275 -87 -200 -99 -239 -106 -349 -6 -81
-5 -90 19 -132 14 -25 31 -58 38 -73 12 -27 16 -28 68 -25 l55 3 3 -32 3 -33
77 1 c42 1 115 4 160 7 l84 7 -21 24 c-12 13 -21 37 -21 53 0 26 -3 29 -22 22
l-23 -6 24 26 c30 31 31 32 24 5 -6 -20 -3 -21 33 -16 92 14 114 20 108 28
-10 16 7 9 52 -21 24 -17 44 -36 44 -42 0 -6 -11 -1 -25 12 -14 13 -25 19 -25
13 0 -6 -13 -16 -29 -21 -22 -8 -34 -7 -50 4 -19 13 -21 13 -21 0 0 -24 38
-38 96 -34 30 1 56 -1 58 -7 3 -5 5 0 5 13 1 12 7 24 14 26 58 19 106 41 129
61 23 20 26 27 19 53 -6 20 -5 34 2 41 20 20 27 11 27 -34 0 -41 2 -45 24 -45
12 0 36 -4 52 -9 16 -5 41 -12 57 -15 15 -4 27 -12 27 -20 0 -11 -9 -11 -52 0
-70 19 -84 18 -68 -1 10 -12 9 -16 -4 -21 -15 -6 -15 -8 1 -20 17 -12 17 -13
-4 -14 -16 0 -21 -4 -17 -15 4 -9 19 -15 35 -15 43 0 46 -22 13 -102 -38 -95
-57 -118 -98 -118 -18 0 -35 2 -38 5 -3 3 -2 29 3 58 4 28 9 75 11 103 l5 50
-154 0 c-111 -1 -152 -4 -149 -12 3 -7 8 -43 11 -81 l7 -69 -28 -1 c-126 -2
-339 -14 -361 -19 -35 -8 -53 -22 -53 -40 0 -11 18 -14 74 -14 67 0 76 2 93
24 15 20 29 25 78 29 33 2 66 2 73 0 15 -6 17 -109 2 -118 -14 -9 -82 -9 -109
0 -12 3 -18 11 -15 17 4 6 2 8 -4 4 -6 -3 -13 -2 -17 3 -5 9 -42 7 -52 -3 -2
-2 11 -7 29 -11 18 -4 42 -13 53 -20 31 -19 79 -27 106 -16 13 5 20 10 14 11
-13 1 62 30 95 37 14 2 82 -10 150 -29 115 -30 135 -32 255 -30 165 3 275 11
275 22 0 4 -19 4 -42 -1 -24 -4 -115 -8 -203 -7 l-160 1 185 9 c102 4 195 13
207 19 21 11 43 55 134 269 27 63 63 143 79 178 26 54 28 62 12 62 -41 0 -289
21 -304 26 -14 4 -15 10 -7 37 23 75 27 199 15 452 -11 223 -15 264 -32 292
-16 28 -17 37 -6 78 15 55 10 65 -28 65 -32 0 -48 15 -25 24 8 3 17 1 20 -4 4
-6 13 -10 21 -10 10 0 14 13 14 48 0 26 5 53 12 60 6 6 13 20 15 29 12 68 14
101 4 107 -17 11 -1 36 24 36 50 0 72 73 38 130 -21 37 -79 56 -195 65 -103 8
-153 -9 -205 -69 -37 -42 -40 -60 -17 -135 12 -40 14 -73 9 -130 -9 -88 -18
-111 -45 -111 -42 0 -14 -84 66 -196 l48 -67 -22 -17 c-24 -20 -28 -30 -11
-30 13 0 40 26 33 32 -2 3 1 10 8 16 10 8 12 -1 10 -46 -4 -75 -9 -97 -27
-116 -8 -8 -24 -63 -34 -123 -11 -59 -29 -142 -40 -183 -12 -41 -28 -103 -37
-138 -9 -34 -19 -61 -21 -58 -2 2 3 67 12 143 13 113 14 161 5 254 -20 211
-51 393 -85 496 -3 9 -15 9 -52 -3 -26 -8 -84 -24 -128 -35 -101 -26 -153 -56
-185 -108 -14 -23 -29 -41 -33 -41 -11 0 -5 1195 5 1206 5 4 19 2 33 -4 l26
-12 -3 52 c-2 44 -6 53 -23 56 -11 2 -24 8 -29 13 -5 4 -9 87 -9 184 0 96 -3
175 -6 174 -3 -1 -27 -15 -53 -33z m882 -1288 c0 -7 3 -23 6 -35 5 -19 2 -23
-17 -24 -17 -1 -19 -3 -6 -6 20 -5 21 -13 4 -37 -11 -16 -15 -15 -41 13 l-28
29 26 29 c14 15 26 31 26 35 0 5 7 8 15 8 8 0 15 -6 15 -12z m-20 -208 c0 -5
-5 -10 -11 -10 -5 0 -7 5 -4 10 3 6 8 10 11 10 2 0 4 -4 4 -10z m-320 -910 c0
-5 -2 -10 -4 -10 -3 0 -8 5 -11 10 -3 6 -1 10 4 10 6 0 11 -4 11 -10z m100
-34 c0 -2 -7 -7 -16 -10 -8 -3 -12 -2 -9 4 6 10 25 14 25 6z m320 -10 c0 -3
-4 -8 -10 -11 -5 -3 -10 -1 -10 4 0 6 5 11 10 11 6 0 10 -2 10 -4z m-570 -410
c0 -7 -10 -16 -22 -20 -42 -11 -58 -7 -58 14 0 17 7 20 40 20 27 0 40 -4 40
-14z m405 -12 l110 -24 -165 5 c-201 6 -320 15 -320 26 0 27 241 23 375 -7z
m188 -31 c-13 -2 -35 -2 -50 0 -16 2 -5 4 22 4 28 0 40 -2 28 -4z"/>
<path d="M3603 5695 c0 -55 3 -113 7 -130 10 -40 10 62 0 160 -7 70 -7 70 -7
-30z"/>
<path d="M1861 5614 c0 -11 3 -14 6 -6 3 7 2 16 -1 19 -3 4 -6 -2 -5 -13z"/>
<path d="M6735 5573 c-65 -7 -66 -23 -2 -23 44 0 57 3 57 15 0 8 -3 14 -7 13
-5 -1 -26 -3 -48 -5z"/>
<path d="M6904 5557 c-6 -7 -26 -25 -45 -40 l-34 -28 40 22 c50 28 58 35 54
47 -3 6 -8 6 -15 -1z"/>
<path d="M7182 5531 c3 -21 0 -31 -8 -31 -7 0 -19 -9 -27 -21 -11 -14 -17 -17
-22 -8 -11 16 -27 -14 -19 -35 8 -21 44 -21 44 0 0 15 2 15 25 0 33 -21 35
-21 35 12 0 15 5 33 11 39 13 13 -8 64 -30 71 -10 3 -12 -3 -9 -27z"/>
<path d="M7001 5536 c-4 -6 -11 -21 -14 -33 -5 -20 -1 -23 28 -23 19 0 37 -5
40 -11 11 -17 -3 -23 -20 -9 -12 10 -15 10 -15 -2 0 -12 33 -48 45 -48 3 0 5
6 5 14 0 7 7 19 15 26 22 18 18 40 -12 68 -30 28 -58 35 -72 18z"/>
<path d="M7095 5540 c-3 -5 -1 -10 4 -10 6 0 11 5 11 10 0 6 -2 10 -4 10 -3 0
-8 -4 -11 -10z"/>
<path d="M7320 5540 l-25 -8 28 -1 c15 -1 27 4 27 9 0 6 -1 10 -2 9 -2 -1 -14
-5 -28 -9z"/>
<path d="M1194 5532 c-6 -4 -15 -18 -19 -32 -7 -25 -7 -25 15 3 22 28 24 42 4
29z"/>
<path d="M4790 5504 c0 -8 32 -33 43 -34 4 0 2 9 -5 20 -12 19 -38 28 -38 14z"/>
<path d="M4860 5394 c0 -14 4 -23 10 -19 6 3 10 15 10 26 0 10 -4 19 -10 19
-5 0 -10 -12 -10 -26z"/>
<path d="M3590 5276 c0 -29 -2 -75 -5 -102 -4 -43 -4 -44 4 -14 14 57 21 170
11 170 -6 0 -10 -24 -10 -54z"/>
<path d="M7265 5218 c7 -23 45 -88 45 -77 0 18 -33 99 -42 99 -5 0 -6 -10 -3
-22z"/>
<path d="M801 5185 c1 -19 18 -51 18 -35 0 8 -4 22 -9 30 -5 8 -9 11 -9 5z"/>
<path d="M1575 5160 c-17 -33 -19 -44 -6 -36 10 6 33 66 26 66 -3 0 -11 -13
-20 -30z"/>
<path d="M1118 5120 c-22 -17 -64 -97 -56 -105 22 -21 116 24 138 65 10 18 -5
40 -27 40 -7 0 -13 5 -13 10 0 15 -15 12 -42 -10z"/>
<path d="M3736 5094 c-9 -71 -7 -91 10 -98 10 -4 13 -2 7 7 -4 6 -6 40 -4 75
3 73 -4 82 -13 16z"/>
<path d="M1920 5115 c-7 -9 -8 -15 -2 -15 5 0 12 7 16 15 3 8 4 15 2 15 -2 0
-9 -7 -16 -15z"/>
<path d="M6707 5115 c-45 -32 -51 -183 -12 -261 44 -85 109 -164 136 -164 5 0
9 10 9 23 0 12 9 37 20 55 14 22 18 38 12 45 -6 7 -13 30 -16 53 -5 26 -20 55
-46 84 -36 40 -45 70 -17 53 7 -4 6 0 -2 10 -9 12 -10 17 -2 17 7 0 2 16 -11
39 -12 22 -26 37 -30 35 -3 -2 -9 0 -12 5 -4 5 2 8 11 7 9 -2 19 -8 21 -14 2
-7 8 -10 13 -6 5 3 9 2 10 -3 0 -4 3 -17 5 -28 3 -11 7 -27 8 -35 9 -44 19
-67 34 -76 15 -10 17 -6 13 32 -1 24 -7 44 -12 44 -5 0 -7 -12 -4 -27 5 -24 4
-25 -4 -7 -10 24 -10 42 2 61 6 9 3 11 -7 7 -12 -5 -16 1 -16 25 0 17 -5 32
-12 32 -56 7 -76 5 -91 -6z"/>
<path d="M967 5073 c-19 -19 -85 -25 -105 -9 -8 5 -4 -7 8 -27 12 -20 26 -37
31 -37 5 0 9 -10 9 -22 0 -18 2 -20 9 -8 6 8 8 17 5 21 -2 4 9 15 25 25 24 14
51 51 51 69 0 10 -17 4 -33 -12z"/>
<path d="M3565 5080 c3 -5 10 -10 16 -10 5 0 9 5 9 10 0 6 -7 10 -16 10 -8 0
-12 -4 -9 -10z"/>
<path d="M3608 5073 c7 -3 16 -2 19 1 4 3 -2 6 -13 5 -11 0 -14 -3 -6 -6z"/>
<path d="M645 4983 c16 -39 70 -101 80 -92 8 8 -23 90 -42 111 -9 10 -24 18
-35 18 -17 0 -17 -2 -3 -37z"/>
<path d="M6890 5002 c0 -6 11 -24 25 -39 17 -20 24 -23 25 -12 0 8 -11 26 -25
39 -14 13 -25 18 -25 12z"/>
<path d="M3785 4970 c10 -11 20 -20 23 -20 3 0 -3 9 -13 20 -10 11 -20 20 -23
20 -3 0 3 -9 13 -20z"/>
<path d="M1070 4962 c0 -11 -55 -42 -75 -42 -6 0 -20 -8 -31 -18 -20 -19 -64
-25 -61 -8 1 6 -8 11 -20 12 -26 1 -27 -3 -13 -42 16 -41 3 -41 -17 0 -12 26
-21 35 -32 30 -9 -3 -22 -7 -28 -7 -7 0 -11 -3 -8 -5 3 -3 0 -11 -7 -19 -16
-20 10 -66 34 -59 10 3 27 9 37 12 14 4 21 0 26 -16 5 -16 9 -19 15 -10 4 7
14 10 21 8 8 -3 19 4 25 15 10 17 12 18 17 3 5 -12 3 -15 -6 -10 -6 4 -9 3 -4
-1 4 -5 16 -9 27 -10 15 -1 17 1 8 12 -8 11 -7 12 5 7 22 -8 45 35 26 48 -11
8 -10 9 3 5 9 -3 19 -3 21 1 2 4 2 1 0 -7 -3 -11 -1 -11 12 -1 8 7 12 17 8 24
-3 6 -3 8 2 4 4 -4 17 -2 29 4 11 5 -2 -14 -30 -43 -28 -30 -54 -61 -57 -71
-6 -16 20 -48 40 -48 5 0 17 -18 26 -40 14 -36 14 -40 0 -38 -11 2 -16 -10
-19 -52 -2 -30 -7 -63 -10 -72 -12 -38 7 -15 37 45 36 73 36 129 -3 161 -17
14 -19 20 -10 24 8 2 29 18 48 35 30 26 38 28 57 18 12 -6 14 -9 5 -7 -12 4
-16 0 -13 -15 2 -10 7 -25 11 -32 4 -6 -3 -3 -17 8 -13 11 -8 3 10 -18 41 -43
44 -45 36 -14 -4 16 -1 14 12 -8 l18 -30 3 43 c2 23 7 40 13 37 5 -4 9 7 9 23
0 16 11 46 25 66 26 39 31 51 16 42 -5 -3 -15 2 -22 12 -13 15 -12 16 3 4 9
-8 19 -9 22 -4 7 12 -18 34 -28 25 -4 -4 -4 0 0 10 8 21 -6 22 -51 0 -27 -13
-40 -14 -57 -5 -35 17 -88 25 -88 14z m177 -21 c0 -11 -4 -18 -8 -15 -4 2 -10
-3 -13 -12 -6 -17 -47 -16 -46 1 0 10 4 11 36 14 9 0 12 6 8 13 -4 7 -3 8 4 4
7 -4 12 -2 12 3 0 6 2 11 4 11 3 0 4 -9 3 -19z m-182 -21 c-27 -28 -58 -32
-34 -4 6 7 15 12 19 9 4 -3 13 2 20 10 7 8 15 15 18 15 3 0 -7 -13 -23 -30z"/>
<path d="M6886 4928 c9 -31 12 -34 26 -20 8 8 8 15 -2 27 -19 22 -32 18 -24
-7z"/>
<path d="M3812 4915 c0 -16 2 -22 5 -12 2 9 2 23 0 30 -3 6 -5 -1 -5 -18z"/>
<path d="M5460 4911 c0 -5 7 -11 15 -15 8 -3 15 -1 15 3 0 5 -7 11 -15 15 -8
3 -15 1 -15 -3z"/>
<path d="M7022 4900 c0 -14 2 -19 5 -12 2 6 2 18 0 25 -3 6 -5 1 -5 -13z"/>
<path d="M7414 4887 c-2 -7 0 -37 5 -67 l9 -55 1 68 c1 64 -4 82 -15 54z"/>
<path d="M2075 4780 c-26 -26 -44 -53 -41 -59 5 -8 12 -6 22 4 9 8 20 12 26 9
7 -5 8 -2 3 6 -6 10 -4 12 11 6 10 -4 15 -4 11 0 -4 4 1 13 11 21 9 8 12 12 5
9 -7 -4 -10 1 -9 11 2 9 9 19 17 21 11 3 11 1 -1 -8 -12 -9 -12 -11 -1 -8 20
6 25 24 8 31 -9 3 -34 -14 -62 -43z"/>
<path d="M735 4723 c4 -10 23 -60 41 -112 35 -98 44 -116 44 -88 0 8 3 23 7
33 4 11 2 15 -4 11 -6 -4 -26 30 -48 83 -21 50 -40 90 -42 90 -3 0 -2 -8 2
-17z"/>
<path d="M6229 4680 c-22 -21 -29 -38 -29 -67 l0 -38 21 32 c11 17 22 41 24
54 3 12 9 27 15 33 8 8 9 6 5 -6 -5 -12 -2 -18 6 -18 8 0 5 -6 -7 -15 -17 -13
-15 -15 14 -15 4 0 7 8 7 18 0 9 4 23 8 30 5 6 7 12 5 13 -31 8 -45 3 -69 -21z
m-8 -53 c-10 -9 -11 -8 -5 6 3 10 9 15 12 12 3 -3 0 -11 -7 -18z"/>
<path d="M1326 4654 c-10 -78 -9 -86 17 -82 27 4 34 36 18 90 -16 51 -27 48
-35 -8z"/>
<path d="M6485 4651 c-8 -15 24 -41 51 -41 30 0 30 7 2 31 -25 20 -44 24 -53
10z"/>
<path d="M6950 4628 c0 -16 -3 -19 -11 -11 -14 14 -65 -14 -75 -42 -10 -31 -3
-107 12 -137 8 -15 29 -45 46 -65 30 -36 30 -36 4 -13 l-29 25 9 -50 c5 -27 9
-71 9 -96 l0 -47 42 29 c57 39 128 69 165 69 26 0 30 3 25 23 -3 12 -11 48
-18 81 -9 43 -17 60 -31 64 -13 3 -18 11 -15 23 7 25 -23 66 -34 48 -7 -11 -9
-10 -9 3 0 9 5 18 10 20 6 2 1 9 -9 15 -18 11 -19 10 -16 -15 4 -25 3 -25 -11
6 -16 37 -28 44 -14 7 6 -15 6 -26 0 -30 -6 -4 -11 -3 -11 2 -2 15 -5 28 -13
71 -8 44 -26 58 -26 20z m140 -285 c-11 -17 -11 -17 -6 0 3 10 7 35 8 55 l1
37 4 -37 c2 -21 -1 -46 -7 -55z"/>
<path d="M7283 4580 c0 -25 2 -35 4 -22 2 12 2 32 0 45 -2 12 -4 2 -4 -23z"/>
<path d="M2070 4598 c0 -9 5 -20 10 -23 13 -8 13 5 0 25 -8 13 -10 13 -10 -2z"/>
<path d="M6028 4573 c8 -44 41 -55 99 -32 26 10 27 12 8 19 -11 5 -32 9 -47 9
-15 1 -33 8 -42 16 -21 21 -24 19 -18 -12z"/>
<path d="M1520 4541 c-36 -8 -100 -37 -100 -47 0 -2 30 -4 66 -3 36 1 60 5 54
9 -9 6 -9 9 0 15 7 4 16 1 21 -6 6 -9 9 -10 9 -2 0 6 -5 15 -10 18 -6 4 -8 11
-5 16 4 5 5 8 3 8 -2 -1 -19 -4 -38 -8z"/>
<path d="M2090 4528 c-12 -22 -12 -22 6 -6 10 10 15 20 12 24 -4 3 -12 -5 -18
-18z"/>
<path d="M7090 4520 c0 -5 5 -10 11 -10 5 0 7 5 4 10 -3 6 -8 10 -11 10 -2 0
-4 -4 -4 -10z"/>
<path d="M7272 4480 c-1 -30 -5 -66 -8 -80 -5 -21 -4 -22 6 -8 6 10 9 45 7 80
l-3 63 -2 -55z"/>
<path d="M1239 4498 c-7 -13 -19 -28 -27 -34 -9 -7 -12 -16 -7 -24 5 -8 4 -11
-3 -6 -6 3 -19 -5 -30 -18 l-19 -25 -33 35 c-38 38 -45 41 -54 18 -4 -10 -2
-13 7 -9 6 4 1 -2 -13 -13 -19 -16 -28 -18 -39 -9 -12 10 -14 9 -8 -6 4 -11 3
-16 -3 -12 -12 7 -40 -18 -40 -36 0 -7 8 -22 18 -33 17 -19 40 -68 57 -121 5
-18 8 -17 30 10 13 17 32 52 42 78 20 56 32 68 96 91 26 10 52 26 57 37 14 26
23 24 42 -8 10 -16 31 -44 48 -63 29 -32 31 -33 24 -10 -4 14 -15 31 -25 37
-9 7 -28 30 -40 50 -12 21 -33 50 -45 66 l-23 27 -12 -22z"/>
<path d="M7400 4505 c-7 -8 -16 -13 -20 -10 -4 3 -10 -7 -13 -20 -4 -25 -4
-25 15 -8 20 18 43 53 35 53 -3 0 -10 -7 -17 -15z"/>
<path d="M1567 4438 c-26 -17 -46 -33 -43 -35 5 -5 106 55 106 63 0 9 -17 1
-63 -28z"/>
<path d="M6705 4433 c-14 -33 -16 -35 -28 -19 -13 17 -14 17 -30 1 -9 -9 -17
-27 -17 -40 0 -27 -32 -50 -56 -41 -8 3 -13 2 -10 -2 2 -4 -2 -16 -10 -27 -14
-18 -14 -18 -14 3 0 12 -4 22 -9 22 -5 0 -16 3 -25 6 -13 5 -16 -1 -16 -31 0
-37 -1 -37 -32 -31 -30 6 -31 5 -13 -8 19 -13 18 -15 -15 -29 -19 -9 -28 -16
-20 -16 13 -1 13 -3 1 -10 -12 -8 -13 -12 -1 -25 7 -9 15 -14 18 -11 6 6 32
-14 32 -26 0 -5 -10 -8 -22 -6 -19 2 -24 -3 -26 -32 -3 -30 -1 -33 11 -22 10
8 17 9 22 1 3 -5 2 -10 -2 -10 -13 0 -34 -40 -27 -51 4 -6 13 -4 25 7 10 9 16
20 14 25 -3 4 0 11 7 15 7 4 10 4 6 -1 -4 -4 -3 -14 3 -21 8 -10 6 -19 -5 -36
-18 -25 -22 -88 -6 -88 6 0 10 17 10 38 0 43 13 68 29 57 14 -8 4 -66 -13 -77
-7 -5 -5 -8 6 -8 10 0 19 11 23 30 4 16 11 33 17 36 15 9 29 -18 17 -33 -14
-16 -1 -140 17 -157 7 -8 11 -16 8 -19 -3 -2 14 -21 38 -41 45 -39 80 -42 105
-9 11 13 17 13 64 -2 28 -10 60 -26 69 -35 29 -29 60 -43 61 -28 1 7 5 -3 9
-22 6 -30 7 -27 7 23 0 38 -4 57 -12 57 -7 0 -17 15 -22 33 l-11 32 -7 -32
c-4 -18 -13 -33 -20 -33 -7 0 -28 15 -48 33 -74 66 -100 87 -108 87 -14 0 -18
16 -7 30 8 12 9 11 4 -4 -5 -15 -4 -17 7 -8 8 7 17 9 20 5 4 -3 7 -3 7 1 0 4
-12 18 -27 32 -16 14 -22 23 -15 19 8 -4 12 2 12 19 0 14 5 26 11 26 5 0 7 5
4 11 -5 7 4 9 26 7 28 -3 36 2 56 31 13 19 21 41 18 49 -3 8 0 12 7 9 7 -2 25
15 41 39 24 40 27 52 26 131 0 49 -6 106 -13 128 -12 40 -12 39 -14 -40 -1
-44 -8 -105 -16 -135 -13 -53 -13 -49 -8 86 5 138 4 142 -16 148 -12 4 -26 4
-32 1 -5 -3 -10 0 -10 7 0 10 -2 10 -9 -1 -7 -11 -9 -11 -14 0 -4 11 -6 11 -6
1 -1 -7 -6 -10 -13 -6 -8 5 -9 2 -5 -10 4 -11 3 -15 -4 -10 -6 3 -9 15 -6 25
8 31 -2 21 -18 -18z m-100 -133 c3 -6 -1 -7 -9 -4 -18 7 -21 14 -7 14 6 0 13
-4 16 -10z m92 -42 c37 -41 54 -88 32 -88 -5 0 -7 5 -4 10 3 6 1 10 -4 10 -6
0 -11 5 -11 11 0 6 -13 22 -30 36 -16 13 -30 29 -30 34 0 17 26 9 47 -13z
m111 -116 c20 -30 11 -28 -19 4 -13 15 -18 25 -10 22 8 -2 21 -14 29 -26z m29
-29 c-3 -10 -5 -4 -5 12 0 17 2 24 5 18 2 -7 2 -21 0 -30z"/>
<path d="M1387 4438 c-8 -30 -5 -31 32 -11 39 22 39 33 2 33 -21 0 -30 -6 -34
-22z"/>
<path d="M7491 4424 c0 -11 3 -14 6 -6 3 7 2 16 -1 19 -3 4 -6 -2 -5 -13z"/>
<path d="M7395 4403 c-33 -14 -77 -32 -97 -41 -36 -14 -68 -49 -68 -73 0 -6 8
-1 18 11 13 16 32 24 66 27 48 4 48 4 43 -24 -30 -139 -54 -304 -41 -275 3 6
12 12 20 12 8 0 27 9 43 21 15 11 47 23 70 26 31 4 41 9 36 20 -3 8 -8 26 -11
39 -7 29 -11 29 -37 7 -17 -16 -17 -14 3 37 38 96 58 165 49 168 -14 6 -10 22
5 22 8 0 18 5 21 10 6 10 -30 9 -40 -2 -3 -3 -6 -22 -7 -42 -2 -45 -21 -64
-45 -45 -9 8 -19 14 -22 14 -3 0 -5 7 -3 15 2 10 -3 9 -14 -5 -12 -14 -15 -15
-11 -4 3 9 0 23 -6 30 -10 11 -9 11 6 0 20 -15 23 -2 5 19 -11 12 -10 12 4 1
10 -7 20 -21 23 -32 4 -11 11 -17 16 -14 5 4 9 -1 9 -10 0 -19 21 -16 28 3 2
7 0 11 -5 10 -4 -2 -9 2 -9 7 -1 6 1 9 5 8 10 -3 8 38 -2 55 -8 11 -2 16 16
13 5 -1 6 3 2 9 -3 5 -7 10 -8 9 -1 0 -29 -12 -62 -26z m43 -24 c-10 -7 -10
-9 2 -9 11 0 11 -3 -3 -17 -16 -16 -19 -16 -27 -3 -13 20 -13 43 0 35 6 -3 10
-2 10 4 0 6 7 8 16 4 13 -5 13 -7 2 -14z"/>
<path d="M1756 4401 c-18 -20 -17 -22 18 -85 40 -71 76 -103 76 -67 0 31 -31
102 -41 95 -5 -3 -9 5 -9 18 0 14 -6 32 -13 42 -12 16 -14 16 -31 -3z"/>
<path d="M1416 4290 c-42 -37 -80 -110 -65 -125 5 -5 47 -11 94 -12 l83 -2 11
29 c10 29 9 30 -12 18 -19 -9 -20 -9 -10 3 9 11 6 14 -17 14 -19 0 -26 -4 -22
-14 3 -9 1 -12 -6 -7 -14 9 -64 -3 -57 -14 3 -5 -2 -7 -10 -6 -9 1 -16 6 -16
9 -1 18 45 99 62 110 11 7 19 15 19 19 0 16 -20 7 -54 -22z"/>
<path d="M6369 4256 c-32 -10 -35 -14 -28 -33 5 -13 12 -23 16 -22 9 0 57 59
52 63 -2 1 -20 -2 -40 -8z"/>
<path d="M1318 4216 c4 -27 6 -28 13 -11 11 30 10 42 -4 42 -9 0 -12 -10 -9
-31z"/>
<path d="M1506 4131 c-4 -5 3 -7 14 -4 23 6 26 13 6 13 -8 0 -17 -4 -20 -9z"/>
<path d="M1468 4123 c7 -3 16 -2 19 1 4 3 -2 6 -13 5 -11 0 -14 -3 -6 -6z"/>
<path d="M1939 4082 c-14 -9 -24 -23 -21 -31 3 -8 0 -11 -7 -7 -6 4 -11 3 -11
-3 0 -20 19 -21 25 -1 3 11 18 29 32 40 31 25 18 27 -18 2z"/>
<path d="M3101 4064 c0 -11 3 -14 6 -6 3 7 2 16 -1 19 -3 4 -6 -2 -5 -13z"/>
<path d="M4886 4055 c-3 -8 -1 -15 4 -15 6 0 10 7 10 15 0 8 -2 15 -4 15 -2 0
-6 -7 -10 -15z"/>
<path d="M3110 4024 c0 -10 5 -26 10 -34 8 -11 9 -7 4 15 -8 37 -14 45 -14 19z"/>
<path d="M7411 4014 c0 -11 3 -14 6 -6 3 7 2 16 -1 19 -3 4 -6 -2 -5 -13z"/>
<path d="M7382 3994 c-7 -8 -11 -20 -9 -27 4 -9 6 -9 6 1 1 7 5 11 9 8 4 -2 9
4 9 15 2 23 2 23 -15 3z"/>
<path d="M4742 3945 c0 -16 2 -22 5 -12 2 9 2 23 0 30 -3 6 -5 -1 -5 -18z"/>
<path d="M7290 3911 c0 -5 11 -31 25 -57 21 -39 25 -43 25 -22 0 14 -7 31 -15
38 -8 7 -15 18 -15 26 0 7 -4 16 -10 19 -5 3 -10 2 -10 -4z"/>
<path d="M6700 3700 c-8 -5 -10 -10 -5 -10 6 0 17 5 25 10 8 5 11 10 5 10 -5
0 -17 -5 -25 -10z"/>
<path d="M6565 3578 c-4 -29 -13 -62 -19 -73 -7 -11 -16 -51 -19 -90 -4 -38
-10 -83 -13 -98 -6 -27 -5 -28 22 -22 165 37 184 49 184 116 0 21 6 44 13 51
11 10 7 26 -22 90 l-35 78 -52 0 -52 0 -7 -52z"/>
<path d="M2238 3400 c-5 -103 -9 -122 -39 -185 -59 -125 -41 -254 46 -334 57
-53 100 -56 143 -10 25 27 31 29 57 19 26 -10 24 -6 -17 32 -25 24 -53 58 -63
77 -34 67 -79 251 -112 461 -9 53 -9 50 -15 -60z"/>
<path d="M2887 3463 c-33 -4 -38 -7 -35 -26 3 -19 10 -22 56 -25 l52 -3 0 30
c0 24 -4 31 -17 29 -10 -1 -35 -3 -56 -5z"/>
<path d="M678 3409 c6 -9 9 -19 5 -23 -4 -4 -8 -15 -8 -24 0 -9 -6 -16 -14
-14 -12 3 -12 1 -1 -13 13 -16 15 -16 21 2 4 10 8 12 8 5 1 -9 8 -11 24 -6 12
3 23 8 25 9 1 1 -14 20 -35 41 -20 21 -32 32 -25 23z m23 -46 c13 -16 12 -17
-3 -4 -10 7 -18 15 -18 17 0 8 8 3 21 -13z"/>
<path d="M4487 3373 c-18 -18 0 -23 81 -23 99 0 162 9 162 21 0 10 -233 12
-243 2z"/>
<path d="M4453 3290 l-11 -30 44 0 c48 0 54 10 24 40 -28 28 -44 25 -57 -10z"/>
<path d="M3115 3150 l-40 -7 45 -1 c25 0 56 4 70 8 24 8 24 8 -5 8 -16 -1 -48
-4 -70 -8z"/>
<path d="M3045 3120 l-30 -8 30 0 c17 0 50 3 75 7 l45 8 -45 1 c-25 0 -58 -4
-75 -8z"/>
<path d="M6338 3055 c4 -22 7 -81 7 -131 l0 -91 21 19 20 20 -22 100 c-24 104
-38 151 -26 83z"/>
<path d="M3082 3053 c19 -20 24 -22 26 -9 2 9 7 14 12 11 5 -3 11 -1 15 5 7
11 6 11 -43 15 l-33 2 23 -24z"/>
<path d="M1430 3036 c0 -8 4 -17 9 -20 5 -4 7 3 4 14 -6 23 -13 26 -13 6z"/>
<path d="M3371 3014 c0 -11 3 -14 6 -6 3 7 2 16 -1 19 -3 4 -6 -2 -5 -13z"/>
<path d="M4468 3013 c12 -2 32 -2 45 0 12 2 2 4 -23 4 -25 0 -35 -2 -22 -4z"/>
<path d="M5168 3003 c6 -2 18 -2 25 0 6 3 1 5 -13 5 -14 0 -19 -2 -12 -5z"/>
<path d="M6467 2950 c-10 -34 -16 -65 -13 -67 2 -3 14 -2 25 2 17 5 21 14 20
48 -1 79 -13 85 -32 17z"/>
<path d="M6520 2756 c0 -9 70 -73 75 -68 3 3 5 -2 5 -10 0 -9 7 -22 17 -29 15
-13 15 -12 1 16 -14 25 -98 105 -98 91z"/>
<path d="M6890 2698 c-19 -32 -25 -48 -16 -48 2 0 13 18 24 40 24 48 19 52 -8
8z"/>
<path d="M6896 2656 c-13 -30 -27 -65 -31 -77 -7 -22 -7 -23 10 -9 17 14 17
14 6 -7 -6 -13 -9 -24 -6 -24 3 -1 8 -2 13 -3 4 -1 12 -4 17 -8 6 -4 12 3 12
15 2 15 0 18 -6 8 -13 -21 -24 5 -11 29 9 16 8 19 -6 13 -12 -4 -15 -2 -12 8
3 8 11 13 17 11 7 -1 10 2 7 7 -3 5 1 27 9 50 20 58 9 51 -19 -13z"/>
<path d="M6947 2689 c7 -7 15 -10 18 -7 3 3 -2 9 -12 12 -14 6 -15 5 -6 -5z"/>
<path d="M1400 2638 c-19 -33 -20 -40 -7 -35 12 5 19 -2 26 -26 8 -28 9 -23
10 36 1 37 0 67 -2 67 -2 0 -14 -19 -27 -42z"/>
<path d="M6649 2612 c6 -12 16 -24 22 -28 8 -4 8 -1 0 14 -6 12 -16 24 -22 28
-8 4 -8 1 0 -14z"/>
<path d="M6944 2599 c7 -46 16 -70 34 -91 15 -18 6 -23 -22 -12 -9 3 -14 9
-12 13 3 4 0 13 -5 21 -7 11 -8 7 -5 -12 3 -20 0 -28 -10 -28 -22 0 -29 4 -28
17 1 7 -2 10 -7 7 -5 -3 -9 -2 -9 3 0 4 -12 22 -25 38 l-26 30 7 -55 c4 -30 7
-63 6 -72 -1 -22 14 -32 24 -17 4 7 3 9 -3 6 -6 -4 -10 4 -10 18 0 14 4 25 9
25 5 0 6 -5 3 -10 -3 -6 1 -13 9 -16 9 -3 13 -10 10 -15 -3 -5 0 -9 6 -9 6 0
8 -5 5 -10 -4 -6 -11 -7 -17 -4 -7 4 -8 2 -4 -4 4 -7 2 -12 -4 -12 -6 0 -9 -4
-6 -9 4 -5 3 -17 0 -26 -9 -24 -25 3 -18 30 4 18 4 18 -6 2 -6 -9 -8 -22 -4
-29 5 -8 -2 -9 -22 -4 -29 6 -28 6 11 -28 32 -28 41 -32 48 -21 4 8 7 21 6 27
-4 31 2 59 11 53 6 -3 10 -3 10 2 0 4 12 16 25 26 22 16 28 16 60 3 l35 -15
-15 29 c-17 33 -19 44 -7 36 10 -6 14 58 6 97 l-6 27 -17 -21 -17 -21 -1 23
c-2 19 0 21 8 9 7 -10 9 -11 7 -2 -2 8 -7 13 -12 12 -5 -1 -13 4 -18 12 -6 8
-7 0 -4 -23z m-14 -129 c0 -5 -4 -10 -10 -10 -5 0 -10 5 -10 10 0 6 5 10 10
10 6 0 10 -4 10 -10z m45 0 c-3 -5 -1 -10 6 -10 7 0 10 -3 6 -6 -9 -9 -28 6
-22 17 4 5 8 9 11 9 3 0 2 -4 -1 -10z"/>
<path d="M6550 2577 c34 -18 60 -27 60 -22 0 7 -58 35 -72 35 -7 0 -2 -6 12
-13z"/>
<path d="M6683 2549 c1 -16 16 -37 36 -55 l35 -29 -18 31 c-10 17 -26 41 -37
55 l-18 24 2 -26z"/>
<path d="M6647 2539 c7 -7 15 -10 18 -7 3 3 -2 9 -12 12 -14 6 -15 5 -6 -5z"/>
<path d="M7020 2536 c0 -2 8 -10 18 -17 15 -13 16 -12 3 4 -13 16 -21 21 -21
13z"/>
<path d="M1462 2510 c0 -14 2 -19 5 -12 2 6 2 18 0 25 -3 6 -5 1 -5 -13z"/>
<path d="M6810 2487 c0 -9 -6 -20 -14 -24 -12 -7 -12 -12 -2 -32 13 -23 13
-22 19 20 3 24 4 46 1 48 -2 2 -4 -3 -4 -12z"/>
<path d="M7055 2330 l-40 -8 47 1 c26 0 45 4 42 9 -3 4 -6 7 -7 7 -1 -1 -20
-5 -42 -9z"/>
<path d="M1697 2170 c3 -11 9 -20 14 -20 5 0 9 9 9 20 0 11 -6 20 -14 20 -9 0
-12 -7 -9 -20z"/>
<path d="M6958 2163 c12 -2 30 -2 40 0 9 3 -1 5 -23 4 -22 0 -30 -2 -17 -4z"/>
<path d="M6622 2063 c1 -85 8 -110 27 -98 13 8 7 70 -15 138 -13 42 -13 42
-12 -40z"/>
<path d="M6835 2111 c4 -13 0 -23 -12 -30 -16 -9 -15 -10 7 -11 27 0 59 -18
103 -58 15 -14 27 -21 27 -16 0 24 -103 134 -125 134 -3 0 -4 -9 0 -19z"/>
<path d="M1702 2100 c0 -14 2 -19 5 -12 2 6 2 18 0 25 -3 6 -5 1 -5 -13z"/>
<path d="M4320 2078 c-5 -36 -20 -69 -29 -64 -3 2 -18 -14 -34 -35 l-27 -39
27 -6 c26 -5 28 -9 31 -63 2 -38 -1 -61 -10 -68 -7 -6 -55 -26 -105 -43 -94
-33 -111 -49 -74 -70 22 -11 288 -14 294 -2 7 12 -23 246 -33 256 -6 6 -10 24
-11 41 -1 37 -26 117 -29 93z"/>
<path d="M1612 2016 c-1 -10 -10 -25 -19 -32 -17 -12 -17 -13 0 -20 24 -9 29
-2 24 38 -2 18 -5 24 -5 14z"/>
<path d="M6505 1949 c-78 -4 -82 -6 -35 -9 40 -2 46 -4 23 -7 -38 -5 -40 -11
-13 -41 23 -24 36 -29 24 -9 -6 8 -3 8 9 -2 25 -20 45 -8 40 23 -3 15 -1 27 6
27 6 1 16 3 21 4 6 1 31 3 57 4 25 0 43 4 39 8 -9 9 -56 10 -171 2z"/>
<path d="M7034 1886 c11 -36 28 -41 19 -6 -4 16 -2 19 13 14 11 -3 9 1 -6 10
-36 22 -38 20 -26 -18z"/>
<path d="M6863 1835 c15 -14 33 -25 40 -25 6 0 -4 11 -23 25 -43 32 -53 32
-17 0z"/>
<path d="M7163 1745 c0 -27 2 -38 4 -22 2 15 2 37 0 50 -2 12 -4 0 -4 -28z"/>
<path d="M1530 1755 c-42 -31 -50 -43 -50 -77 0 -14 -5 -28 -11 -30 -8 -3 -7
-22 1 -68 12 -62 15 -133 7 -175 -2 -11 2 -43 10 -72 7 -29 17 -84 22 -124 10
-79 10 -78 39 -84 20 -3 20 0 15 108 -3 62 2 204 10 315 15 193 14 232 -2 232
-4 0 -22 -11 -41 -25z"/>
<path d="M7081 1764 c0 -11 3 -14 6 -6 3 7 2 16 -1 19 -3 4 -6 -2 -5 -13z"/>
<path d="M7050 1715 c0 -8 4 -15 10 -15 5 0 7 7 4 15 -4 8 -8 15 -10 15 -2 0
-4 -7 -4 -15z"/>
<path d="M1661 1684 c0 -11 3 -14 6 -6 3 7 2 16 -1 19 -3 4 -6 -2 -5 -13z"/>
<path d="M7170 1669 c7 -11 14 -19 16 -16 7 7 -7 37 -17 37 -6 0 -5 -9 1 -21z"/>
<path d="M4415 1569 c9 -108 31 -268 55 -399 11 -63 28 -161 37 -217 l17 -103
47 -15 c107 -36 226 -41 226 -11 0 8 -6 12 -14 9 -7 -3 -13 -1 -14 3 0 5 -6
109 -13 230 -12 218 -13 222 -39 248 -14 14 -29 26 -32 26 -3 0 -24 19 -46 43
-23 23 -48 41 -55 39 -9 -2 -12 3 -7 15 3 10 3 15 -2 11 -4 -4 -14 0 -22 8 -8
8 -19 12 -24 9 -5 -4 -6 2 -2 11 4 11 2 15 -4 11 -5 -3 -16 6 -24 21 -8 14
-22 35 -32 45 -10 10 -15 22 -12 27 3 5 0 12 -6 16 -8 4 -9 3 -5 -4 4 -7 2
-12 -3 -12 -6 0 -11 11 -11 24 0 14 -5 28 -11 31 -7 5 -8 -15 -4 -66z"/>
<path d="M1872 1548 c-15 -58 -15 -58 2 -58 19 0 23 17 16 65 l-5 40 -13 -47z"/>
<path d="M1620 1360 c-1 -74 -3 -154 -6 -177 -3 -24 -2 -43 4 -43 12 0 24 303
12 332 -6 16 -9 -19 -10 -112z"/>
<path d="M836 1342 c-2 -4 5 -19 15 -32 l20 -25 -12 25 c-7 14 -12 28 -11 33
3 9 -5 9 -12 -1z"/>
<path d="M1972 1110 c-20 -19 -27 -30 -19 -30 2 0 18 11 37 25 19 14 27 25 19
25 -8 0 -25 -9 -37 -20z"/>
<path d="M2243 1025 c0 -33 2 -45 4 -27 2 18 2 45 0 60 -2 15 -4 0 -4 -33z"/>
<path d="M7204 949 c-8 -14 14 -19 25 -6 8 10 7 14 -5 14 -8 0 -17 -4 -20 -8z"/>
<path d="M7221 921 c-8 -5 -9 -11 -3 -15 5 -3 12 1 16 9 6 17 6 18 -13 6z"/>
<path d="M7238 753 c7 -3 16 -2 19 1 4 3 -2 6 -13 5 -11 0 -14 -3 -6 -6z"/>
<path d="M1228 243 c7 -3 16 -2 19 1 4 3 -2 6 -13 5 -11 0 -14 -3 -6 -6z"/>
<path d="M1733 233 c9 -2 23 -2 30 0 6 3 -1 5 -18 5 -16 0 -22 -2 -12 -5z"/>
</g>
</svg>
