<?xml version="1.0" standalone="no"?>
<!DOCTYPE svg PUBLIC "-//W3C//DTD SVG 20010904//EN"
 "http://www.w3.org/TR/2001/REC-SVG-20010904/DTD/svg10.dtd">
<svg version="1.0" xmlns="http://www.w3.org/2000/svg"
 width="900.000000pt" height="600.000000pt" viewBox="0 0 900.000000 600.000000"
 preserveAspectRatio="xMidYMid meet">

<g transform="translate(0.000000,600.000000) scale(0.100000,-0.100000)"
fill="#000000" stroke="none">
<path d="M6470 5975 c0 -64 -42 -191 -72 -217 -28 -24 -36 -23 -50 10 -39 93
-58 132 -67 132 -5 0 -19 -15 -30 -34 -20 -32 -20 -35 -5 -141 15 -101 15
-111 -1 -144 -22 -45 -36 -88 -40 -121 -7 -63 -38 -183 -57 -227 -12 -26 -23
-52 -24 -58 -5 -19 -41 -110 -58 -148 -10 -20 -16 -48 -14 -62 3 -14 1 -25 -3
-25 -5 0 -9 -7 -9 -16 0 -8 -4 -12 -10 -9 -5 3 -10 3 -11 -2 -3 -34 -12 -51
-37 -74 -15 -14 -26 -31 -24 -37 2 -7 -1 -12 -8 -12 -6 0 -9 -4 -5 -9 3 -6 -4
-8 -16 -6 -14 3 -23 -2 -26 -15 -5 -20 -29 -34 -44 -25 -4 3 -19 -1 -32 -10
-26 -17 -50 -12 -79 17 -22 22 -41 23 -57 4 -10 -11 -7 -24 10 -57 31 -62 36
-154 14 -245 -18 -69 -18 -74 -2 -92 23 -26 21 -46 -7 -67 -20 -15 -23 -24
-18 -62 2 -24 0 -54 -6 -66 -17 -36 -24 -77 -29 -167 -3 -57 -9 -87 -18 -93
-8 -4 -19 -32 -25 -62 -15 -72 -64 -181 -86 -189 -13 -5 -15 -16 -9 -66 6 -51
4 -65 -14 -95 -18 -31 -21 -51 -20 -141 1 -100 2 -104 19 -89 10 9 21 36 25
60 3 25 11 48 17 51 6 4 8 3 5 -2 -3 -6 -2 -16 2 -23 8 -13 19 37 40 175 6 39
22 95 36 125 24 51 36 112 16 80 -5 -8 -11 -9 -15 -3 -3 5 0 12 8 15 9 4 12
14 9 26 -3 12 -1 21 6 21 6 0 11 -4 11 -10 0 -5 4 -10 9 -10 9 0 26 74 23 103
-1 10 2 16 7 12 15 -8 23 25 41 159 10 75 34 209 59 331 12 59 62 208 84 250
8 17 33 48 56 70 22 22 41 45 41 51 0 6 12 25 28 41 54 59 104 139 158 250 63
128 78 145 99 117 29 -41 54 -157 54 -257 0 -116 11 -157 54 -193 18 -15 39
-41 47 -58 25 -51 15 -77 -42 -114 l-50 -34 7 -61 c10 -74 10 -83 -3 -170 -6
-37 -16 -75 -23 -83 -21 -26 -28 -104 -12 -143 32 -82 49 -111 64 -111 9 0 43
-12 75 -27 52 -24 72 -27 169 -27 61 -1 130 1 155 4 31 3 45 1 45 -7 0 -13
-91 -63 -115 -63 -49 0 -89 -22 -108 -59 -23 -44 -20 -51 18 -51 24 0 60 16
140 61 40 22 90 77 102 109 7 21 17 30 32 30 12 0 27 5 33 11 6 6 40 15 75 19
79 11 233 47 275 66 17 8 39 14 50 14 20 1 206 56 294 89 77 28 180 89 230
135 44 42 97 144 118 228 6 26 14 94 17 150 5 87 2 122 -19 225 -14 66 -35
139 -46 162 -12 22 -21 54 -21 70 0 50 -35 114 -85 155 -50 41 -67 41 -45 0
12 -22 12 -27 0 -34 -23 -15 -63 -11 -85 8 -38 32 -181 206 -232 282 -28 41
-61 84 -73 95 -13 11 -48 52 -78 90 -31 39 -97 113 -148 165 -50 52 -103 114
-118 138 l-26 42 -260 0 -260 0 0 -25z m44 -431 c29 -4 46 -12 46 -20 0 -8 5
-14 10 -14 6 0 10 -7 10 -16 0 -9 -5 -12 -12 -8 -7 4 -8 3 -4 -4 4 -6 13 -9
21 -6 8 4 13 10 10 14 -3 5 3 7 12 6 19 -3 31 -26 13 -26 -6 0 -10 -6 -9 -12
4 -31 -4 -40 -45 -58 -24 -10 -47 -23 -50 -29 -9 -15 -196 -15 -196 -1 0 18
30 70 40 70 5 0 11 -4 15 -9 7 -13 59 5 76 26 11 12 9 18 -10 32 -21 16 -22
20 -10 39 15 24 17 25 83 16z m1131 -721 c-2 -10 -4 -22 -6 -28 -6 -22 14 -76
32 -85 31 -17 59 -85 62 -149 2 -64 -22 -112 -72 -144 -69 -44 -113 -76 -164
-114 -44 -34 -65 -43 -95 -43 -21 0 -42 -3 -46 -7 -4 -5 -11 -8 -14 -8 -4 -1
-27 -8 -52 -17 -129 -46 -163 -51 -236 -35 -38 8 -84 14 -103 13 -36 -3 -71
21 -71 48 0 8 -6 17 -12 19 -7 3 -4 6 7 7 18 1 18 2 -4 11 -15 6 -21 14 -17
25 3 8 2 12 -4 9 -6 -3 -10 0 -10 7 0 10 -2 10 -9 -1 -10 -15 -20 -4 -26 31
-6 31 38 102 79 127 19 12 54 40 78 62 47 45 54 51 113 95 68 52 115 74 163
79 26 3 62 8 79 11 33 6 47 2 181 -64 44 -21 55 -23 62 -12 5 8 3 24 -5 41 -8
15 -17 46 -21 68 l-7 42 37 -3 c21 -1 40 3 44 8 4 6 14 14 22 17 8 3 16 6 17
6 1 1 0 -7 -2 -16z m-1986 -1027 c-9 -8 -10 -5 -5 14 3 14 7 48 8 75 2 46 2
44 5 -14 3 -41 0 -68 -8 -75z"/>
<path d="M7280 5990 c0 -6 16 -33 35 -60 19 -27 35 -57 35 -65 0 -8 7 -15 15
-15 19 0 21 84 3 123 -11 22 -20 27 -50 27 -21 0 -38 -5 -38 -10z"/>
<path d="M8987 5032 c-5 -7 -10 -43 -12 -80 -4 -85 -25 -192 -40 -212 -14 -17
-22 -39 -30 -89 -3 -19 -8 -38 -11 -42 -2 -4 1 -29 7 -54 12 -48 11 -52 -27
-128 -8 -16 -14 -37 -14 -47 0 -10 -4 -21 -9 -24 -5 -3 -6 -26 -4 -51 4 -35 2
-46 -11 -51 -24 -9 -20 -24 13 -53 27 -24 30 -33 33 -100 3 -77 2 -80 -47 -96
-18 -7 -17 -9 12 -21 17 -7 39 -24 47 -36 14 -19 14 -23 1 -30 -7 -5 -23 -22
-35 -38 -17 -24 -19 -32 -8 -49 10 -17 9 -23 -6 -40 -12 -14 -16 -28 -12 -48
8 -34 -12 -49 -64 -48 -34 0 -35 2 -38 40 l-4 40 -13 -40 c-15 -42 -14 -45 7
-49 7 -1 30 -13 51 -25 52 -32 51 -66 -6 -106 -23 -16 -48 -29 -55 -27 -7 2
-14 -3 -16 -10 -21 -74 -31 -98 -42 -102 -8 -3 -14 -12 -14 -20 0 -28 -41 -84
-69 -96 -31 -13 -57 -52 -46 -69 4 -7 2 -18 -5 -25 -14 -18 -50 -143 -50 -175
0 -20 3 -22 12 -13 23 23 26 12 7 -24 -21 -41 -15 -67 8 -35 8 12 20 21 26 21
7 0 23 11 35 25 l24 25 36 -19 c21 -11 48 -31 62 -46 22 -23 25 -35 23 -88 -2
-44 3 -74 17 -104 11 -24 20 -54 20 -69 0 -14 5 -35 11 -46 6 -11 17 -57 25
-101 19 -108 39 -128 30 -30 -4 46 -2 73 5 75 7 2 5 39 -6 113 -9 61 -14 126
-12 145 10 61 65 311 93 415 68 255 81 361 76 595 -1 68 5 151 18 235 18 118
20 168 18 535 -2 223 -7 399 -11 392z"/>
<path d="M6471 3834 c0 -11 3 -14 6 -6 3 7 2 16 -1 19 -3 4 -6 -2 -5 -13z"/>
<path d="M8650 3714 c0 -8 5 -12 10 -9 6 4 8 11 5 16 -9 14 -15 11 -15 -7z"/>
<path d="M5363 2928 c-17 -18 -42 -58 -56 -88 -27 -62 -68 -192 -63 -198 10
-9 47 21 42 34 -3 8 1 14 8 14 8 0 29 18 46 40 17 22 43 43 56 46 22 6 29 15
25 37 -1 4 12 15 29 25 37 21 38 30 3 34 -25 3 -28 7 -28 43 0 52 -21 56 -62
13z"/>
<path d="M7570 2750 c-85 -4 -194 -8 -242 -9 l-88 -1 0 -66 0 -67 109 7 108 8
7 -119 c3 -65 9 -202 12 -305 l7 -187 71 6 c39 3 73 7 75 9 2 2 -1 135 -7 296
-6 160 -9 295 -6 300 3 4 52 8 110 8 l104 0 0 65 0 65 -52 -2 c-29 -1 -123 -5
-208 -8z"/>
<path d="M5923 2740 c-70 -15 -109 -42 -161 -111 -20 -26 -30 -105 -21 -156
19 -98 64 -127 279 -178 125 -30 160 -53 160 -103 0 -32 -30 -69 -67 -83 -37
-14 -139 -11 -178 5 -33 14 -65 59 -65 91 0 12 -14 15 -75 15 l-76 0 7 -37
c23 -129 114 -193 280 -201 110 -5 181 13 238 59 87 73 104 221 33 297 -35 38
-83 58 -226 92 -169 41 -201 66 -170 134 16 34 67 56 132 56 65 0 114 -28 136
-78 14 -32 16 -32 83 -32 76 0 77 2 57 71 -29 94 -126 158 -251 164 -40 2 -92
0 -115 -5z"/>
<path d="M5232 2613 c-5 -10 -12 -43 -16 -73 -9 -70 -41 -168 -66 -198 -10
-12 -38 -33 -61 -46 l-42 -24 86 -4 c64 -2 87 0 87 9 0 7 -7 10 -15 7 -27 -11
-27 24 -1 63 24 34 26 46 26 142 0 83 3 108 17 123 9 10 11 18 5 18 -6 0 -15
-8 -20 -17z"/>
<path d="M8822 2540 c0 -19 2 -27 5 -17 2 9 2 25 0 35 -3 9 -5 1 -5 -18z"/>
<path d="M8276 2415 c11 -107 31 -167 66 -195 116 -93 190 -123 308 -123 127
-1 200 43 200 121 0 31 -4 35 -55 57 -30 14 -55 29 -55 35 0 5 -4 10 -10 10
-17 0 -11 -46 9 -64 28 -26 16 -49 -23 -43 -17 2 -40 0 -50 -6 -15 -7 -30 -5
-60 10 -23 11 -68 33 -100 49 -33 16 -69 34 -80 41 -24 13 -141 134 -150 155
-3 7 -3 -14 0 -47z"/>
<path d="M8764 2448 c-22 -35 7 -125 44 -139 14 -5 26 -8 27 -7 7 9 -9 77 -16
72 -5 -3 -9 5 -9 16 0 13 -8 24 -19 27 -13 3 -17 11 -14 24 6 21 -2 25 -13 7z"/>
<path d="M5214 2090 c0 -63 1 -89 3 -57 2 31 2 83 0 115 -2 31 -3 5 -3 -58z"/>
<path d="M3690 1485 l0 -695 -22 -5 c-13 -2 -129 -8 -258 -13 l-235 -9 215 -1
c118 -1 287 1 375 5 157 8 158 8 68 13 -55 3 -97 10 -105 18 -10 10 -14 156
-16 697 -2 423 -7 685 -13 685 -5 0 -9 -263 -9 -695z"/>
<path d="M2184 2139 c-4 -7 -5 -201 -3 -433 2 -232 4 -533 4 -669 0 -292 6
-277 -114 -277 -41 0 -72 -3 -68 -6 3 -3 81 -3 174 2 155 7 164 8 118 18 -38
8 -53 17 -61 36 -13 29 -24 469 -24 998 0 319 -4 366 -26 331z"/>
<path d="M6772 2080 c0 -19 2 -27 5 -17 2 9 2 25 0 35 -3 9 -5 1 -5 -18z"/>
<path d="M6781 1875 c0 -66 -9 -212 -18 -325 -19 -221 -21 -506 -3 -524 7 -7
10 17 10 79 0 50 7 227 15 395 10 204 12 336 6 400 l-8 95 -2 -120z"/>
<path d="M5214 1575 c0 -181 2 -257 3 -168 2 89 2 237 0 330 -1 92 -3 20 -3
-162z"/>
<path d="M4223 1548 c5 -283 10 -311 69 -370 44 -44 115 -68 203 -68 124 0
210 45 249 130 19 41 21 68 24 303 l4 257 -70 0 -70 0 -4 -242 c-3 -265 -9
-291 -63 -316 -33 -15 -107 -15 -140 0 -54 24 -59 51 -63 316 l-4 242 -70 0
-70 0 5 -252z"/>
<path d="M1230 1730 l0 -60 100 0 100 0 0 -280 0 -280 70 0 70 0 0 280 0 280
100 0 100 0 0 60 0 60 -270 0 -270 0 0 -60z"/>
<path d="M2760 1450 l0 -340 65 0 64 0 3 133 3 132 70 3 c153 7 167 -4 175
-140 4 -58 10 -110 14 -116 8 -13 156 -17 156 -4 0 4 -7 16 -15 26 -11 14 -15
45 -15 103 0 95 -16 143 -55 169 l-26 17 31 19 c17 10 40 37 50 61 52 114 -9
240 -130 266 -28 6 -127 11 -220 11 l-170 0 0 -340z m370 202 c15 -12 24 -33
27 -64 5 -40 2 -50 -20 -72 -25 -25 -31 -26 -137 -26 l-110 0 0 90 0 90 109 0
c90 0 113 -3 131 -18z"/>
<path d="M7310 1285 l0 -345 73 0 72 0 -3 155 -3 155 133 0 133 0 -3 -155 -3
-155 -52 -2 c-58 -2 -62 -2 -132 5 -27 2 -38 3 -22 0 36 -6 35 -23 -2 -23 -17
0 -90 -2 -163 -5 -189 -6 -467 -5 -505 1 -18 4 -33 2 -33 -3 0 -5 -6 -10 -14
-10 -8 0 -12 6 -9 13 3 7 1 19 -3 25 -5 9 -10 6 -15 -9 -6 -15 -17 -22 -34
-22 -14 0 -25 4 -25 8 0 5 -13 7 -30 4 -27 -4 -44 -22 -20 -22 6 0 10 -4 10
-9 0 -9 -96 -14 -735 -36 -381 -14 -425 -14 -490 1 -38 8 -83 22 -100 29 l-30
14 28 0 c39 1 34 21 -6 21 -52 0 -70 25 -91 125 -2 11 -4 -1 -5 -27 0 -25 -6
-48 -12 -50 -6 -2 -13 -42 -16 -93 -3 -50 -11 -94 -17 -98 -6 -5 16 -6 49 -2
33 3 218 8 410 11 193 2 537 8 765 13 228 4 707 6 1063 4 447 -3 674 -1 730 6
45 7 125 13 177 15 259 11 343 19 360 36 13 13 45 19 139 25 110 6 121 8 121
26 0 18 -12 19 -369 19 -286 0 -370 3 -374 13 -4 8 -8 9 -14 1 -10 -12 -126
-34 -174 -33 l-34 1 30 7 c20 4 26 9 17 14 -7 5 -20 6 -30 3 -67 -21 -318 -40
-328 -25 -3 5 27 9 65 9 39 0 71 4 71 8 0 5 30 9 66 10 91 2 95 12 6 12 l-72
0 -2 338 -3 337 -67 3 -68 3 0 -131 0 -130 -135 0 -135 0 0 130 0 130 -70 0
-70 0 0 -345z m350 -385 c0 -5 -8 -10 -17 -10 -15 0 -16 2 -3 10 19 12 20 12
20 0z"/>
<path d="M5720 1540 l0 -60 100 0 100 0 0 -280 0 -280 75 0 75 0 0 280 0 280
100 0 100 0 0 60 0 60 -275 0 -275 0 0 -60z"/>
<path d="M8295 1360 c-3 -5 -1 -10 4 -10 6 0 11 5 11 10 0 6 -2 10 -4 10 -3 0
-8 -4 -11 -10z"/>
<path d="M6128 1333 c7 -3 16 -2 19 1 4 3 -2 6 -13 5 -11 0 -14 -3 -6 -6z"/>
<path d="M8015 980 l-40 -7 53 -2 c29 0 52 3 52 9 0 11 -5 11 -65 0z"/>
<path d="M6893 963 c9 -2 25 -2 35 0 9 3 1 5 -18 5 -19 0 -27 -2 -17 -5z"/>
<path d="M6988 953 c12 -2 30 -2 40 0 9 3 -1 5 -23 4 -22 0 -30 -2 -17 -4z"/>
<path d="M8038 953 c12 -2 30 -2 40 0 9 3 -1 5 -23 4 -22 0 -30 -2 -17 -4z"/>
<path d="M6513 903 c20 -2 54 -2 75 0 20 2 3 4 -38 4 -41 0 -58 -2 -37 -4z"/>
<path d="M4078 763 c45 -2 119 -2 165 0 45 1 8 3 -83 3 -91 0 -128 -2 -82 -3z"/>
</g>
</svg>
